<?xml version="1.0" encoding="UTF-8"?>
<svg id="Layer_4" data-name="Layer 4" xmlns="http://www.w3.org/2000/svg" viewBox="0 0 496.94 255.68">
  <defs>
    <style>
      .cls-1 {
        fill: #fff;
      }

      .cls-2 {
        stroke: #cccbca;
        stroke-dasharray: 0 0 7 4;
        stroke-width: .25px;
      }

      .cls-2, .cls-3, .cls-4 {
        stroke-linecap: round;
        stroke-linejoin: round;
      }

      .cls-2, .cls-3, .cls-4, .cls-5 {
        fill: none;
      }

      .cls-6, .cls-3, .cls-7, .cls-4, .cls-5 {
        stroke: #577180;
      }

      .cls-6, .cls-3, .cls-7, .cls-5 {
        stroke-width: .5px;
      }

      .cls-6, .cls-7 {
        stroke-miterlimit: 1.5;
      }

      .cls-7 {
        fill: #582c7c;
      }

      .cls-4 {
        stroke-width: .44px;
      }

      .cls-5 {
        stroke-miterlimit: 10;
      }
    </style>
  </defs>
  <path class="cls-2" d="m99.61,228.47V3.14m35.39,225.33V3.14m35.38,225.33V3.14m35.39,225.33V3.14m35.38,225.33V3.14m35.39,225.33V3.14m35.38,225.33V3.14m35.39,225.33V3.14m35.38,225.33V3.14m35.39,225.33V3.14m35.5,225.33V3.14"/>
  <line class="cls-3" x1="64.22" y1="231.65" x2="64.22" y2="228.47"/>
  <path d="m62.57,236.6c0-.59.06-1.07.18-1.43.12-.36.3-.64.54-.84.24-.2.54-.29.91-.29.27,0,.5.05.71.16.2.11.37.26.5.47.13.2.24.45.31.75.08.29.11.69.11,1.18,0,.59-.06,1.06-.18,1.42-.12.36-.3.64-.54.84-.24.2-.54.3-.91.3-.48,0-.86-.17-1.14-.52-.33-.42-.5-1.1-.5-2.04Zm.63,0c0,.82.1,1.37.29,1.64.19.27.43.41.71.41s.52-.14.71-.41c.19-.27.29-.82.29-1.64s-.1-1.37-.29-1.64c-.19-.27-.43-.41-.72-.41s-.51.12-.68.36c-.21.31-.32.87-.32,1.69Z"/>
  <g>
    <path d="m98.32,239.07h-.62v-3.92c-.15.14-.34.28-.58.42-.24.14-.46.25-.65.32v-.59c.34-.16.65-.36.9-.59s.44-.45.55-.67h.4v5.03Z"/>
    <path d="m99.9,236.6c0-.59.06-1.07.18-1.43.12-.36.3-.64.54-.84.24-.2.54-.29.91-.29.27,0,.5.05.71.16.2.11.37.26.5.47.13.2.24.45.31.75.08.29.11.69.11,1.18,0,.59-.06,1.06-.18,1.42-.12.36-.3.64-.54.84-.24.2-.54.3-.91.3-.48,0-.86-.17-1.14-.52-.33-.42-.5-1.1-.5-2.04Zm.63,0c0,.82.1,1.37.29,1.64.19.27.43.41.71.41s.52-.14.71-.41c.19-.27.29-.82.29-1.64s-.1-1.37-.29-1.64c-.19-.27-.43-.41-.72-.41s-.51.12-.68.36c-.21.31-.32.87-.32,1.69Z"/>
  </g>
  <g>
    <path d="m134.63,238.48v.59h-3.31c0-.15.02-.29.07-.43.08-.23.22-.45.4-.67.19-.22.45-.47.81-.76.54-.45.91-.8,1.1-1.06.19-.26.29-.51.29-.74s-.09-.45-.26-.62c-.17-.17-.4-.25-.68-.25-.3,0-.53.09-.71.27s-.27.42-.27.74l-.63-.06c.04-.47.21-.83.49-1.08.28-.25.66-.37,1.14-.37s.86.13,1.14.4.42.6.42.99c0,.2-.04.4-.12.59s-.22.4-.41.61c-.19.21-.51.51-.95.88-.37.31-.61.52-.71.63-.1.11-.19.22-.26.33h2.46Z"/>
    <path d="m135.29,236.6c0-.59.06-1.07.18-1.43.12-.36.3-.64.54-.84.24-.2.54-.29.91-.29.27,0,.5.05.71.16.2.11.37.26.5.47.13.2.24.45.31.75.08.29.11.69.11,1.18,0,.59-.06,1.06-.18,1.42-.12.36-.3.64-.54.84-.24.2-.54.3-.91.3-.48,0-.86-.17-1.14-.52-.33-.42-.5-1.1-.5-2.04Zm.63,0c0,.82.1,1.37.29,1.64.19.27.43.41.71.41s.52-.14.71-.41c.19-.27.29-.82.29-1.64s-.1-1.37-.29-1.64c-.19-.27-.43-.41-.72-.41s-.51.12-.68.36c-.21.31-.32.87-.32,1.69Z"/>
  </g>
  <g>
    <path d="m166.78,237.75l.62-.08c.07.35.19.6.36.75.17.15.38.23.62.23.29,0,.53-.1.73-.3.2-.2.3-.45.3-.75s-.09-.52-.28-.7c-.18-.18-.42-.28-.7-.28-.12,0-.26.02-.43.07l.07-.54s.07,0,.1,0c.26,0,.5-.07.71-.21s.31-.35.31-.63c0-.23-.08-.41-.23-.56s-.35-.22-.59-.22-.44.08-.6.23-.26.38-.31.68l-.62-.11c.08-.41.25-.73.51-.96.27-.23.6-.34.99-.34.27,0,.53.06.76.18.23.12.41.28.53.48.12.2.18.42.18.65,0,.22-.06.41-.17.59s-.29.32-.52.42c.3.07.53.21.69.43.16.21.25.48.25.81,0,.44-.16.81-.48,1.11-.32.3-.72.46-1.21.46-.44,0-.8-.13-1.1-.39-.29-.26-.46-.6-.5-1.02Z"/>
    <path d="m170.67,236.6c0-.59.06-1.07.18-1.43.12-.36.3-.64.54-.84.24-.2.54-.29.91-.29.27,0,.5.05.71.16.2.11.37.26.5.47.13.2.24.45.31.75.08.29.11.69.11,1.18,0,.59-.06,1.06-.18,1.42-.12.36-.3.64-.54.84-.24.2-.54.3-.91.3-.48,0-.86-.17-1.14-.52-.33-.42-.5-1.1-.5-2.04Zm.63,0c0,.82.1,1.37.29,1.64.19.27.43.41.71.41s.52-.14.71-.41c.19-.27.29-.82.29-1.64s-.1-1.37-.29-1.64c-.19-.27-.43-.41-.72-.41s-.51.12-.68.36c-.21.31-.32.87-.32,1.69Z"/>
  </g>
  <g>
    <path d="m204.14,239.07v-1.2h-2.17v-.56l2.29-3.25h.5v3.25h.68v.56h-.68v1.2h-.62Zm0-1.76v-2.26l-1.57,2.26h1.57Z"/>
    <path d="m206.06,236.6c0-.59.06-1.07.18-1.43.12-.36.3-.64.54-.84.24-.2.54-.29.91-.29.27,0,.5.05.71.16.2.11.37.26.5.47.13.2.24.45.31.75.08.29.11.69.11,1.18,0,.59-.06,1.06-.18,1.42-.12.36-.3.64-.54.84-.24.2-.54.3-.91.3-.48,0-.86-.17-1.14-.52-.33-.42-.5-1.1-.5-2.04Zm.63,0c0,.82.1,1.37.29,1.64.19.27.43.41.71.41s.52-.14.71-.41c.19-.27.29-.82.29-1.64s-.1-1.37-.29-1.64c-.19-.27-.43-.41-.72-.41s-.51.12-.68.36c-.21.31-.32.87-.32,1.69Z"/>
  </g>
  <g>
    <path d="m237.55,237.76l.65-.05c.05.31.16.55.33.71.17.16.38.24.63.24.3,0,.55-.11.75-.33s.31-.52.31-.89-.1-.63-.3-.83-.46-.3-.77-.3c-.2,0-.38.04-.54.14-.16.09-.29.21-.38.35l-.58-.08.48-2.57h2.49v.59h-2l-.27,1.35c.3-.21.62-.31.95-.31.44,0,.81.15,1.11.45s.45.69.45,1.17-.13.85-.4,1.18c-.32.41-.76.61-1.32.61-.46,0-.83-.13-1.12-.38s-.45-.59-.49-1.02Z"/>
    <path d="m241.44,236.6c0-.59.06-1.07.18-1.43.12-.36.3-.64.54-.84s.54-.29.91-.29c.27,0,.5.05.71.16.2.11.37.26.5.47.13.2.24.45.31.75.08.29.11.69.11,1.18,0,.59-.06,1.06-.18,1.42-.12.36-.3.64-.54.84-.24.2-.54.3-.91.3-.48,0-.86-.17-1.14-.52-.33-.42-.5-1.1-.5-2.04Zm.63,0c0,.82.1,1.37.29,1.64.19.27.43.41.71.41s.52-.14.71-.41.29-.82.29-1.64-.1-1.37-.29-1.64-.43-.41-.72-.41-.51.12-.68.36c-.21.31-.32.87-.32,1.69Z"/>
  </g>
  <g>
    <path d="m276.13,235.29l-.61.05c-.05-.24-.13-.42-.23-.53-.17-.18-.37-.26-.62-.26-.2,0-.37.05-.52.16-.19.14-.35.35-.46.62-.11.27-.17.66-.17,1.16.15-.23.33-.39.54-.5.21-.11.44-.16.67-.16.41,0,.76.15,1.05.45.29.3.43.69.43,1.17,0,.31-.07.61-.2.88-.14.27-.32.48-.56.62s-.51.22-.81.22c-.51,0-.93-.19-1.25-.57-.32-.38-.48-1-.48-1.86,0-.97.18-1.67.54-2.11.31-.38.73-.57,1.26-.57.39,0,.72.11.97.33s.4.53.45.92Zm-2.51,2.16c0,.21.04.41.13.61s.22.34.38.44c.16.1.33.15.51.15.26,0,.48-.1.67-.31.19-.21.28-.49.28-.85s-.09-.62-.28-.82c-.18-.2-.42-.3-.7-.3s-.51.1-.71.3c-.19.2-.29.46-.29.78Z"/>
    <path d="m276.83,236.6c0-.59.06-1.07.18-1.43.12-.36.3-.64.54-.84s.54-.29.91-.29c.27,0,.5.05.71.16.2.11.37.26.5.47.13.2.24.45.31.75.08.29.11.69.11,1.18,0,.59-.06,1.06-.18,1.42-.12.36-.3.64-.54.84-.24.2-.54.3-.91.3-.48,0-.86-.17-1.14-.52-.33-.42-.5-1.1-.5-2.04Zm.63,0c0,.82.1,1.37.29,1.64.19.27.43.41.71.41s.52-.14.71-.41.29-.82.29-1.64-.1-1.37-.29-1.64-.43-.41-.72-.41-.51.12-.68.36c-.21.31-.32.87-.32,1.69Z"/>
  </g>
  <g>
    <path d="m308.36,234.72v-.59h3.24v.48c-.32.34-.63.79-.95,1.35s-.56,1.14-.73,1.74c-.12.42-.2.88-.24,1.38h-.63c0-.39.08-.87.23-1.43s.36-1.1.64-1.62c.28-.52.57-.96.88-1.31h-2.45Z"/>
    <path d="m312.22,236.6c0-.59.06-1.07.18-1.43.12-.36.3-.64.54-.84s.54-.29.91-.29c.27,0,.5.05.71.16.2.11.37.26.5.47.13.2.24.45.31.75.08.29.11.69.11,1.18,0,.59-.06,1.06-.18,1.42-.12.36-.3.64-.54.84-.24.2-.54.3-.91.3-.48,0-.86-.17-1.14-.52-.33-.42-.5-1.1-.5-2.04Zm.63,0c0,.82.1,1.37.29,1.64.19.27.43.41.71.41s.52-.14.71-.41.29-.82.29-1.64-.1-1.37-.29-1.64-.43-.41-.72-.41-.51.12-.68.36c-.21.31-.32.87-.32,1.69Z"/>
  </g>
  <g>
    <path d="m344.66,236.36c-.25-.09-.44-.23-.57-.4s-.18-.38-.18-.62c0-.36.13-.67.39-.92.26-.25.61-.37,1.04-.37s.79.13,1.06.38c.27.25.4.56.4.93,0,.23-.06.43-.18.61-.12.17-.31.3-.55.4.31.1.54.26.7.49.16.22.24.49.24.8,0,.43-.15.79-.46,1.08s-.7.44-1.2.44-.89-.15-1.2-.44c-.3-.29-.46-.66-.46-1.1,0-.33.08-.6.25-.82.17-.22.4-.37.71-.45Zm-.32,1.27c0,.18.04.35.12.51s.21.29.37.38c.16.09.34.14.53.14.29,0,.54-.09.73-.28s.29-.43.29-.72-.1-.54-.3-.73-.44-.29-.74-.29-.53.1-.72.29-.29.43-.29.72Zm.2-2.31c0,.24.08.43.23.58.15.15.35.23.59.23s.43-.07.58-.22c.15-.15.23-.33.23-.55s-.08-.42-.23-.57c-.16-.15-.35-.23-.58-.23s-.43.08-.58.23-.23.33-.23.54Z"/>
    <path d="m347.6,236.6c0-.59.06-1.07.18-1.43.12-.36.3-.64.54-.84s.54-.29.91-.29c.27,0,.5.05.71.16.2.11.37.26.5.47.13.2.24.45.31.75.08.29.11.69.11,1.18,0,.59-.06,1.06-.18,1.42-.12.36-.3.64-.54.84-.24.2-.54.3-.91.3-.48,0-.86-.17-1.14-.52-.33-.42-.5-1.1-.5-2.04Zm.63,0c0,.82.1,1.37.29,1.64.19.27.43.41.71.41s.52-.14.71-.41.29-.82.29-1.64-.1-1.37-.29-1.64-.43-.41-.72-.41-.51.12-.68.36c-.21.31-.32.87-.32,1.69Z"/>
  </g>
  <g>
    <path d="m379.19,237.91l.59-.05c.05.28.15.48.29.6.14.13.32.19.54.19.19,0,.35-.04.5-.13s.26-.2.35-.35c.09-.14.17-.34.23-.59.06-.25.09-.5.09-.75,0-.03,0-.07,0-.12-.12.2-.29.35-.5.48-.21.12-.44.18-.69.18-.41,0-.77-.15-1.05-.45s-.43-.7-.43-1.19.15-.92.45-1.23.67-.46,1.13-.46c.33,0,.62.09.89.26.27.18.48.43.62.75.14.32.21.79.21,1.41s-.07,1.15-.21,1.53c-.14.38-.35.67-.62.87s-.6.3-.97.3c-.39,0-.71-.11-.96-.33-.25-.22-.4-.52-.45-.92Zm2.52-2.21c0-.35-.09-.63-.28-.84-.19-.21-.41-.31-.68-.31s-.51.11-.71.33c-.2.22-.3.51-.3.87,0,.32.1.58.29.78.19.2.43.3.71.3s.52-.1.7-.3c.18-.2.28-.48.28-.83Z"/>
    <path d="m382.99,236.6c0-.59.06-1.07.18-1.43.12-.36.3-.64.54-.84s.54-.29.91-.29c.27,0,.5.05.71.16.2.11.37.26.5.47.13.2.24.45.31.75.08.29.11.69.11,1.18,0,.59-.06,1.06-.18,1.42-.12.36-.3.64-.54.84-.24.2-.54.3-.91.3-.48,0-.86-.17-1.14-.52-.33-.42-.5-1.1-.5-2.04Zm.63,0c0,.82.1,1.37.29,1.64.19.27.43.41.71.41s.52-.14.71-.41.29-.82.29-1.64-.1-1.37-.29-1.64-.43-.41-.72-.41-.51.12-.68.36c-.21.31-.32.87-.32,1.69Z"/>
  </g>
  <g>
    <path d="m414.85,239.07h-.62v-3.92c-.15.14-.34.28-.58.42s-.46.25-.65.32v-.59c.34-.16.65-.36.9-.59.26-.23.44-.45.55-.67h.4v5.03Z"/>
    <path d="m416.43,236.6c0-.59.06-1.07.18-1.43.12-.36.3-.64.54-.84s.54-.29.91-.29c.27,0,.5.05.71.16.2.11.37.26.5.47.13.2.24.45.31.75.08.29.11.69.11,1.18,0,.59-.06,1.06-.18,1.42-.12.36-.3.64-.54.84-.24.2-.54.3-.91.3-.48,0-.86-.17-1.14-.52-.33-.42-.5-1.1-.5-2.04Zm.63,0c0,.82.1,1.37.29,1.64.19.27.43.41.71.41s.52-.14.71-.41.29-.82.29-1.64-.1-1.37-.29-1.64-.43-.41-.72-.41-.51.12-.68.36c-.21.31-.32.87-.32,1.69Z"/>
    <path d="m420.32,236.6c0-.59.06-1.07.18-1.43.12-.36.3-.64.54-.84s.54-.29.91-.29c.27,0,.5.05.71.16.2.11.37.26.5.47.13.2.24.45.31.75.08.29.11.69.11,1.18,0,.59-.06,1.06-.18,1.42-.12.36-.3.64-.54.84-.24.2-.54.3-.91.3-.48,0-.86-.17-1.14-.52-.33-.42-.5-1.1-.5-2.04Zm.63,0c0,.82.1,1.37.29,1.64.19.27.43.41.71.41s.52-.14.71-.41.29-.82.29-1.64-.1-1.37-.29-1.64-.43-.41-.72-.41-.51.12-.68.36c-.21.31-.32.87-.32,1.69Z"/>
  </g>
  <g>
    <path d="m450.18,239.07h-.62v-3.92c-.15.14-.34.28-.58.42s-.46.25-.65.32v-.59c.34-.16.65-.36.9-.59.26-.23.44-.45.55-.67h.4v5.03Z"/>
    <path d="m454.07,239.07h-.62v-3.92c-.15.14-.34.28-.58.42s-.46.25-.65.32v-.59c.34-.16.65-.36.9-.59.26-.23.44-.45.55-.67h.4v5.03Z"/>
    <path d="m455.65,236.6c0-.59.06-1.07.18-1.43.12-.36.3-.64.54-.84s.54-.29.91-.29c.27,0,.5.05.71.16.2.11.37.26.5.47.13.2.24.45.31.75.08.29.11.69.11,1.18,0,.59-.06,1.06-.18,1.42-.12.36-.3.64-.54.84-.24.2-.54.3-.91.3-.48,0-.86-.17-1.14-.52-.33-.42-.5-1.1-.5-2.04Zm.63,0c0,.82.1,1.37.29,1.64.19.27.43.41.71.41s.52-.14.71-.41.29-.82.29-1.64-.1-1.37-.29-1.64-.43-.41-.72-.41-.51.12-.68.36c-.21.31-.32.87-.32,1.69Z"/>
  </g>
  <g>
    <line class="cls-4" x1="99.61" y1="231.65" x2="99.61" y2="228.47"/>
    <line class="cls-4" x1="134.99" y1="231.65" x2="134.99" y2="228.47"/>
    <line class="cls-4" x1="170.38" y1="231.65" x2="170.38" y2="228.47"/>
    <line class="cls-4" x1="205.77" y1="231.65" x2="205.77" y2="228.47"/>
    <line class="cls-4" x1="241.15" y1="231.65" x2="241.15" y2="228.47"/>
    <line class="cls-4" x1="276.54" y1="231.65" x2="276.54" y2="228.47"/>
    <line class="cls-4" x1="311.93" y1="231.65" x2="311.93" y2="228.47"/>
    <line class="cls-4" x1="347.31" y1="231.65" x2="347.31" y2="228.47"/>
    <line class="cls-4" x1="382.7" y1="231.65" x2="382.7" y2="228.47"/>
    <line class="cls-4" x1="453.59" y1="231.65" x2="453.59" y2="228.47"/>
    <line class="cls-4" x1="418.09" y1="231.65" x2="418.09" y2="228.47"/>
    <line class="cls-4" x1="488.99" y1="231.65" x2="488.99" y2="228.47"/>
    <line class="cls-4" x1="99.61" y1="231.65" x2="99.61" y2="228.47"/>
    <line class="cls-4" x1="134.99" y1="231.65" x2="134.99" y2="228.47"/>
    <line class="cls-4" x1="170.38" y1="231.65" x2="170.38" y2="228.47"/>
    <line class="cls-4" x1="205.77" y1="231.65" x2="205.77" y2="228.47"/>
    <line class="cls-4" x1="241.15" y1="231.65" x2="241.15" y2="228.47"/>
    <line class="cls-4" x1="276.54" y1="231.65" x2="276.54" y2="228.47"/>
    <line class="cls-4" x1="311.93" y1="231.65" x2="311.93" y2="228.47"/>
    <line class="cls-4" x1="347.31" y1="231.65" x2="347.31" y2="228.47"/>
    <line class="cls-4" x1="382.7" y1="231.65" x2="382.7" y2="228.47"/>
    <line class="cls-4" x1="453.59" y1="231.65" x2="453.59" y2="228.47"/>
    <line class="cls-4" x1="418.09" y1="231.65" x2="418.09" y2="228.47"/>
    <line class="cls-4" x1="488.99" y1="231.65" x2="488.99" y2="228.47"/>
  </g>
  <g>
    <path d="m485.58,239.07h-.62v-3.92c-.15.14-.34.28-.58.42s-.46.25-.65.32v-.59c.34-.16.65-.36.9-.59.26-.23.44-.45.55-.67h.4v5.03Z"/>
    <path d="m490.39,238.48v.59h-3.31c0-.15.02-.29.07-.43.08-.23.22-.45.41-.67s.45-.47.81-.76c.54-.45.91-.8,1.1-1.06.19-.26.29-.51.29-.74s-.09-.45-.26-.62c-.17-.17-.4-.25-.68-.25-.3,0-.53.09-.71.27s-.27.42-.27.74l-.63-.06c.04-.47.21-.83.49-1.08.28-.25.66-.37,1.14-.37s.86.13,1.14.4.42.6.42.99c0,.2-.04.4-.12.59s-.22.4-.41.61-.51.51-.95.88c-.37.31-.61.52-.71.63-.1.11-.19.22-.26.33h2.46Z"/>
    <path d="m491.05,236.6c0-.59.06-1.07.18-1.43.12-.36.3-.64.54-.84s.54-.29.91-.29c.27,0,.5.05.71.16.2.11.37.26.5.47.13.2.24.45.31.75.08.29.11.69.11,1.18,0,.59-.06,1.06-.18,1.42-.12.36-.3.64-.54.84-.24.2-.54.3-.91.3-.48,0-.86-.17-1.14-.52-.33-.42-.5-1.1-.5-2.04Zm.63,0c0,.82.1,1.37.29,1.64.19.27.43.41.71.41s.52-.14.71-.41.29-.82.29-1.64-.1-1.37-.29-1.64-.43-.41-.72-.41-.51.12-.68.36c-.21.31-.32.87-.32,1.69Z"/>
  </g>
  <g>
    <path d="m264.32,252.9v-5.01h1.62c.62,0,1.02.03,1.2.08.29.08.53.24.72.49.19.25.29.58.29.98,0,.31-.06.57-.17.78-.11.21-.25.37-.42.49-.17.12-.35.2-.53.24-.24.05-.59.07-1.05.07h-.66v1.89h-1.01Zm1.01-4.16v1.42h.55c.4,0,.67-.03.8-.08.13-.05.24-.13.32-.25.08-.11.11-.24.11-.39,0-.18-.05-.33-.16-.45-.11-.12-.24-.19-.41-.22-.12-.02-.36-.03-.73-.03h-.49Z"/>
    <path d="m271.09,251.74l.96.16c-.12.35-.32.62-.58.8s-.6.28-1,.28c-.63,0-1.1-.21-1.4-.62-.24-.33-.36-.75-.36-1.25,0-.6.16-1.07.47-1.41s.71-.51,1.19-.51c.54,0,.97.18,1.28.54.31.36.46.9.45,1.64h-2.41c0,.29.08.51.23.67.15.16.33.24.55.24.15,0,.28-.04.38-.12s.18-.21.23-.4Zm.05-.97c0-.28-.08-.49-.22-.63s-.3-.22-.5-.22c-.21,0-.38.08-.52.23s-.2.36-.2.62h1.44Z"/>
    <path d="m273.8,252.9h-.96v-3.63h.89v.52c.15-.24.29-.41.41-.48s.26-.12.42-.12c.22,0,.43.06.63.18l-.3.84c-.16-.1-.31-.16-.45-.16s-.25.04-.34.11c-.09.07-.17.21-.22.4-.05.19-.08.6-.08,1.22v1.12Z"/>
    <path d="m278.77,250.34l-.95.17c-.03-.19-.1-.33-.22-.43-.11-.1-.26-.14-.44-.14-.24,0-.43.08-.57.25-.14.17-.21.44-.21.83,0,.43.07.74.22.91s.34.27.58.27c.18,0,.33-.05.45-.16s.2-.28.25-.53l.94.16c-.1.43-.29.76-.56.98-.28.22-.65.33-1.12.33-.53,0-.95-.17-1.27-.5-.32-.34-.47-.8-.47-1.39s.16-1.07.48-1.4c.32-.33.75-.5,1.29-.5.44,0,.79.09,1.05.29.26.19.45.48.56.87Z"/>
    <path d="m281.6,251.74l.96.16c-.12.35-.32.62-.58.8-.26.18-.6.28-1,.28-.63,0-1.1-.21-1.4-.62-.24-.33-.36-.75-.36-1.25,0-.6.16-1.07.47-1.41s.71-.51,1.19-.51c.54,0,.97.18,1.28.54.31.36.46.9.45,1.64h-2.41c0,.29.08.51.23.67.15.16.33.24.55.24.15,0,.28-.04.38-.12s.18-.21.23-.4Zm.05-.97c0-.28-.08-.49-.21-.63s-.3-.22-.5-.22c-.21,0-.38.08-.52.23s-.2.36-.2.62h1.44Z"/>
    <path d="m286.69,252.9h-.96v-1.85c0-.39-.02-.65-.06-.76s-.11-.2-.2-.27c-.09-.06-.2-.1-.33-.1-.17,0-.32.04-.45.14-.13.09-.22.21-.27.36s-.07.43-.07.83v1.64h-.96v-3.63h.89v.53c.32-.41.72-.62,1.2-.62.21,0,.41.04.58.11s.31.17.4.29c.09.12.15.25.19.4s.05.37.05.65v2.26Z"/>
    <path d="m289.33,249.27v.77h-.66v1.46c0,.3,0,.47.02.52s.04.09.09.12c.04.03.1.05.16.05.09,0,.22-.03.39-.09l.08.75c-.22.1-.48.14-.76.14-.17,0-.33-.03-.47-.09-.14-.06-.24-.13-.31-.23-.07-.09-.11-.22-.13-.38-.02-.11-.03-.34-.03-.68v-1.58h-.44v-.77h.44v-.72l.96-.56v1.28h.66Z"/>
  </g>
  <line class="cls-5" x1="64.22" y1="228.47" x2="64.22" y2="3.14"/>
  <g>
    <path class="cls-2" d="m99.61,228.47V3.14m35.39,225.33V3.14m35.38,225.33V3.14m35.39,225.33V3.14m35.38,225.33V3.14m35.39,225.33V3.14m35.38,225.33V3.14m35.39,225.33V3.14m35.38,225.33V3.14m35.39,225.33V3.14m35.5,225.33V3.14"/>
    <line class="cls-2" x1="488.99" y1="228.47" x2="488.99" y2="3.14"/>
    <line class="cls-2" x1="488.99" y1="228.47" x2="488.99" y2="3.14"/>
  </g>
  <line class="cls-5" x1="64.22" y1="228.47" x2="489.09" y2="228.47"/>
  <g>
    <path d="m15.79,180.11v-5.01h3.73v.85h-2.72v1.11h2.53v.84h-2.53v1.36h2.81v.84h-3.83Z"/>
    <path d="m21.47,180.11l-1.47-3.63h1.01l.69,1.85.2.62c.05-.16.09-.26.1-.31.03-.1.07-.21.1-.31l.69-1.85h.99l-1.45,3.63h-.87Z"/>
    <path d="m26.5,178.96l.96.16c-.12.35-.32.62-.59.8-.27.18-.6.28-1,.28-.63,0-1.1-.21-1.41-.62-.24-.33-.36-.75-.36-1.25,0-.6.16-1.07.47-1.41.32-.34.72-.51,1.2-.51.54,0,.97.18,1.28.54.31.36.46.9.45,1.64h-2.42c0,.28.08.51.23.67.15.16.33.24.56.24.15,0,.28-.04.38-.12s.18-.21.23-.4Zm.06-.97c0-.28-.08-.49-.22-.63-.14-.15-.3-.22-.5-.22-.21,0-.38.08-.52.23-.14.15-.21.36-.2.62h1.44Z"/>
    <path d="m29.22,180.11h-.97v-3.63h.9v.52c.15-.24.29-.4.41-.48.12-.08.26-.12.42-.12.22,0,.43.06.64.18l-.3.84c-.16-.1-.31-.16-.45-.16s-.25.04-.34.11c-.09.07-.17.21-.22.4s-.08.6-.08,1.22v1.12Z"/>
    <path d="m33.91,180.11h-.97v-3.63h.9v.52c.15-.24.29-.4.41-.48.12-.08.26-.12.42-.12.22,0,.43.06.64.18l-.3.84c-.16-.1-.31-.16-.45-.16s-.25.04-.34.11c-.09.07-.17.21-.22.4s-.08.6-.08,1.22v1.12Z"/>
    <path d="m37.83,178.96l.96.16c-.12.35-.32.62-.59.8-.27.18-.6.28-1,.28-.63,0-1.1-.21-1.41-.62-.24-.33-.36-.75-.36-1.25,0-.6.16-1.07.47-1.41.32-.34.72-.51,1.2-.51.54,0,.97.18,1.28.54.31.36.46.9.45,1.64h-2.42c0,.28.08.51.23.67.15.16.33.24.56.24.15,0,.28-.04.38-.12s.18-.21.23-.4Zm.06-.97c0-.28-.08-.49-.22-.63-.14-.15-.3-.22-.5-.22-.21,0-.38.08-.52.23-.14.15-.21.36-.2.62h1.44Z"/>
    <path d="m42.81,177.55l-.95.17c-.03-.19-.1-.33-.22-.43s-.26-.14-.44-.14c-.24,0-.43.08-.58.25-.14.17-.21.44-.21.83,0,.43.07.73.22.91s.34.27.59.27c.18,0,.33-.05.45-.16.12-.1.2-.28.25-.53l.95.16c-.1.43-.29.76-.57.98s-.65.33-1.12.33c-.53,0-.96-.17-1.28-.5-.32-.33-.48-.8-.48-1.39s.16-1.07.48-1.4c.32-.33.75-.5,1.29-.5.44,0,.8.1,1.06.29.26.19.45.48.56.87Z"/>
    <path d="m45.66,178.96l.96.16c-.12.35-.32.62-.59.8-.27.18-.6.28-1,.28-.63,0-1.1-.21-1.41-.62-.24-.33-.36-.75-.36-1.25,0-.6.16-1.07.47-1.41.32-.34.72-.51,1.2-.51.54,0,.97.18,1.28.54.31.36.46.9.45,1.64h-2.42c0,.28.08.51.23.67.15.16.33.24.56.24.15,0,.28-.04.38-.12s.18-.21.23-.4Zm.06-.97c0-.28-.08-.49-.22-.63-.14-.15-.3-.22-.5-.22-.21,0-.38.08-.52.23-.14.15-.21.36-.2.62h1.44Z"/>
    <path d="m47.46,175.99v-.89h.96v.89h-.96Zm0,4.12v-3.63h.96v3.63h-.96Z"/>
    <path d="m50.41,180.11l-1.47-3.63h1.01l.69,1.85.2.62c.05-.16.09-.26.1-.31.03-.1.07-.21.1-.31l.69-1.85h.99l-1.45,3.63h-.87Z"/>
    <path d="m55.44,178.96l.96.16c-.12.35-.32.62-.59.8-.27.18-.6.28-1,.28-.63,0-1.1-.21-1.41-.62-.24-.33-.36-.75-.36-1.25,0-.6.16-1.07.47-1.41.32-.34.72-.51,1.2-.51.54,0,.97.18,1.28.54.31.36.46.9.45,1.64h-2.42c0,.28.08.51.23.67.15.16.33.24.56.24.15,0,.28-.04.38-.12s.18-.21.23-.4Zm.06-.97c0-.28-.08-.49-.22-.63-.14-.15-.3-.22-.5-.22-.21,0-.38.08-.52.23-.14.15-.21.36-.2.62h1.44Z"/>
    <path d="m60.58,180.11h-.9v-.53c-.15.21-.32.36-.53.46-.2.1-.41.15-.61.15-.42,0-.78-.17-1.08-.5-.3-.34-.45-.81-.45-1.41s.15-1.08.44-1.4c.29-.32.66-.48,1.1-.48.41,0,.76.17,1.06.51v-1.8h.96v5.01Zm-2.58-1.89c0,.39.05.67.16.84.16.25.37.38.65.38.22,0,.41-.09.57-.28.16-.19.23-.47.23-.84,0-.42-.08-.72-.23-.9-.15-.18-.34-.27-.58-.27s-.42.09-.58.27c-.15.18-.23.45-.23.81Z"/>
    <path d="m23.16,185.99l-.88-.16c.1-.35.27-.61.51-.78.24-.17.6-.25,1.07-.25.43,0,.75.05.96.15.21.1.36.23.44.39.09.16.13.44.13.86v1.12c-.01.32,0,.55.04.71.03.15.09.31.17.49h-.95c-.03-.06-.06-.16-.09-.28-.02-.06-.03-.09-.03-.11-.17.16-.34.28-.53.36-.19.08-.39.12-.6.12-.38,0-.67-.1-.89-.3s-.32-.46-.32-.77c0-.21.05-.39.15-.55.1-.16.24-.28.41-.37.18-.08.43-.16.77-.22.45-.08.76-.16.94-.24v-.1c0-.18-.05-.32-.14-.4-.09-.08-.26-.12-.52-.12-.17,0-.31.03-.4.1-.1.07-.17.19-.23.35Zm1.29.78c-.12.04-.32.09-.59.15-.27.06-.44.11-.53.17-.13.09-.19.2-.19.34s.05.25.15.35.23.15.38.15c.17,0,.34-.06.5-.17.12-.09.19-.19.23-.32.02-.08.04-.24.04-.47v-.19Z"/>
    <path d="m28.32,188.51v-5.01h1.63c.62,0,1.02.02,1.21.08.29.08.53.24.72.49.19.25.29.58.29.98,0,.31-.06.57-.17.78-.11.21-.25.37-.43.49-.17.12-.35.2-.53.24-.24.05-.59.07-1.05.07h-.66v1.89h-1.02Zm1.02-4.16v1.42h.56c.4,0,.67-.03.8-.08.13-.05.24-.13.32-.25s.12-.24.12-.39c0-.18-.05-.33-.16-.45-.11-.12-.24-.19-.41-.22-.12-.02-.37-.03-.73-.03h-.49Z"/>
    <path d="m35.11,187.36l.96.16c-.12.35-.32.62-.59.8-.27.18-.6.28-1,.28-.63,0-1.1-.21-1.41-.62-.24-.33-.36-.75-.36-1.25,0-.6.16-1.07.47-1.41.32-.34.72-.51,1.2-.51.54,0,.97.18,1.28.54.31.36.46.9.45,1.64h-2.42c0,.28.08.51.23.67.15.16.33.24.56.24.15,0,.28-.04.38-.12s.18-.21.23-.4Zm.06-.97c0-.28-.08-.49-.22-.63-.14-.15-.3-.22-.5-.22-.21,0-.38.08-.52.23-.14.15-.21.36-.2.62h1.44Z"/>
    <path d="m36.91,188.51v-5.01h.96v5.01h-.96Z"/>
    <path d="m38.87,188.51v-5.01h.96v5.01h-.96Z"/>
    <path d="m45.12,186.67v-.84h2.19v2c-.21.21-.52.39-.93.54-.4.16-.81.23-1.23.23-.53,0-.99-.11-1.38-.33-.39-.22-.69-.53-.88-.94-.2-.41-.3-.85-.3-1.33,0-.52.11-.99.33-1.39.22-.41.54-.72.97-.93.32-.17.72-.25,1.21-.25.62,0,1.11.13,1.46.39.35.26.58.62.68,1.08l-1.01.19c-.07-.25-.2-.44-.4-.58-.2-.14-.44-.21-.73-.21-.44,0-.8.14-1.06.42-.26.28-.39.7-.39,1.25,0,.59.13,1.04.4,1.34.27.3.61.45,1.04.45.21,0,.43-.04.64-.12.21-.08.4-.18.55-.3v-.64h-1.16Z"/>
    <path d="m49.17,188.51h-.97v-3.63h.9v.52c.15-.24.29-.4.41-.48.12-.08.26-.12.42-.12.22,0,.43.06.64.18l-.3.84c-.16-.1-.31-.16-.45-.16s-.25.04-.34.11c-.09.07-.17.21-.22.4s-.08.6-.08,1.22v1.12Z"/>
    <path d="m51.7,185.99l-.88-.16c.1-.35.27-.61.51-.78.24-.17.6-.25,1.07-.25.43,0,.75.05.96.15.21.1.36.23.44.39.09.16.13.44.13.86v1.12c-.01.32,0,.55.04.71.03.15.09.31.17.49h-.95c-.03-.06-.06-.16-.09-.28-.02-.06-.03-.09-.03-.11-.17.16-.34.28-.53.36-.19.08-.39.12-.6.12-.38,0-.67-.1-.89-.3s-.32-.46-.32-.77c0-.21.05-.39.15-.55.1-.16.24-.28.41-.37.18-.08.43-.16.77-.22.45-.08.76-.16.94-.24v-.1c0-.18-.05-.32-.14-.4-.09-.08-.26-.12-.52-.12-.17,0-.31.03-.4.1-.1.07-.17.19-.23.35Zm1.29.78c-.12.04-.32.09-.59.15-.27.06-.44.11-.53.17-.13.09-.19.2-.19.34s.05.25.15.35.23.15.38.15c.17,0,.34-.06.5-.17.12-.09.19-.19.23-.32.02-.08.04-.24.04-.47v-.19Z"/>
    <path d="m58.21,188.51h-.97v-1.85c0-.39-.02-.65-.06-.76-.04-.11-.11-.2-.2-.27-.09-.06-.2-.1-.33-.1-.17,0-.32.05-.45.14s-.22.21-.27.36-.07.43-.07.83v1.64h-.96v-3.63h.9v.53c.32-.41.72-.62,1.2-.62.21,0,.41.04.58.11.18.08.31.17.4.29s.15.25.19.4c.04.15.05.37.05.65v2.26Z"/>
    <path d="m60.86,184.88v.77h-.66v1.46c0,.3,0,.47.02.52.01.05.04.09.09.12.04.03.1.05.16.05.09,0,.22-.03.39-.09l.08.75c-.22.1-.48.14-.76.14-.17,0-.33-.03-.47-.09-.14-.06-.24-.13-.31-.23-.06-.09-.11-.22-.14-.37-.02-.11-.03-.34-.03-.68v-1.58h-.44v-.77h.44v-.72l.97-.56v1.28h.66Z"/>
  </g>
  <g>
    <path d="m43.42,66.52l1.93-5.01h.72l2.06,5.01h-.76l-.59-1.52h-2.1l-.55,1.52h-.71Zm1.45-2.06h1.71l-.53-1.39c-.16-.42-.28-.77-.36-1.04-.06.32-.15.64-.27.96l-.55,1.47Z"/>
    <path d="m48.34,65.43l.61-.1c.03.24.13.43.29.56s.38.19.66.19.49-.06.63-.17c.14-.11.21-.25.21-.4,0-.14-.06-.25-.18-.33-.08-.05-.3-.12-.63-.21-.45-.11-.77-.21-.94-.3-.18-.08-.31-.2-.4-.34-.09-.15-.14-.31-.14-.49,0-.16.04-.31.11-.45.07-.14.18-.25.3-.34.1-.07.23-.13.39-.18.17-.05.34-.07.53-.07.29,0,.54.04.75.12s.38.19.48.33c.1.14.17.33.21.56l-.6.08c-.03-.19-.11-.33-.24-.44-.13-.1-.32-.16-.56-.16-.28,0-.49.05-.61.14-.12.09-.18.2-.18.33,0,.08.02.15.08.22.05.07.13.12.24.16.06.02.24.08.55.16.44.12.74.21.92.29.17.07.31.18.41.32.1.14.15.32.15.53s-.06.4-.18.58c-.12.18-.29.32-.52.42-.23.1-.48.15-.77.15-.47,0-.83-.1-1.08-.29s-.41-.49-.48-.87Z"/>
    <path d="m52.11,62.21v-.71h.62v.71h-.62Zm0,4.3v-3.63h.62v3.63h-.62Z"/>
    <path d="m56.05,66.07c-.23.19-.45.33-.66.41-.21.08-.44.12-.68.12-.4,0-.71-.1-.92-.29-.22-.2-.32-.44-.32-.75,0-.18.04-.34.12-.49.08-.15.19-.26.32-.35.13-.09.28-.16.44-.2.12-.03.3-.06.55-.09.5-.06.87-.13,1.1-.21,0-.08,0-.14,0-.16,0-.25-.06-.43-.18-.53-.16-.14-.39-.21-.7-.21-.29,0-.51.05-.64.15-.14.1-.24.28-.31.54l-.6-.08c.06-.26.15-.47.27-.62.13-.16.31-.28.55-.37.24-.08.51-.13.83-.13s.56.04.76.11c.19.07.34.16.43.28.09.11.16.25.19.42.02.1.03.29.03.57v.82c0,.57.01.93.04,1.09.03.15.08.3.16.44h-.65c-.06-.13-.1-.28-.12-.45Zm-.05-1.37c-.22.09-.56.17-1.01.23-.25.04-.43.08-.54.12s-.19.11-.24.2c-.06.09-.09.19-.09.29,0,.16.06.3.19.41s.31.16.55.16.45-.05.64-.16c.19-.1.32-.25.41-.43.07-.14.1-.34.1-.62v-.23Z"/>
    <path d="m57.58,66.52v-3.63h.56v.52c.27-.4.65-.6,1.16-.6.22,0,.42.04.61.12.18.08.32.18.41.31.09.13.16.28.19.45.02.11.03.31.03.6v2.23h-.62v-2.21c0-.25-.02-.44-.07-.56-.05-.12-.13-.22-.26-.3-.12-.07-.27-.11-.43-.11-.26,0-.49.08-.68.25-.19.17-.29.48-.29.95v1.98h-.62Z"/>
  </g>
  <g>
    <path d="m8.23,41.46l1.93-5.01h.72l2.06,5.01h-.76l-.59-1.52h-2.1l-.55,1.52h-.71Zm1.45-2.06h1.71l-.53-1.39c-.16-.42-.28-.77-.36-1.04-.06.32-.15.64-.27.96l-.55,1.47Z"/>
    <path d="m13.4,41.46v-3.63h.55v.51c.11-.18.27-.32.46-.43.19-.11.41-.16.65-.16.27,0,.49.06.66.17s.29.27.37.47c.29-.42.66-.64,1.13-.64.36,0,.64.1.83.3.19.2.29.51.29.92v2.49h-.61v-2.29c0-.25-.02-.42-.06-.53-.04-.11-.11-.2-.22-.26-.1-.07-.23-.1-.37-.1-.26,0-.47.08-.64.25-.17.17-.25.44-.25.81v2.11h-.62v-2.36c0-.27-.05-.48-.15-.62-.1-.14-.27-.21-.49-.21-.17,0-.33.05-.48.14s-.25.22-.32.4-.1.43-.1.76v1.88h-.62Z"/>
    <path d="m21.75,40.29l.64.08c-.1.37-.29.66-.56.86s-.62.31-1.04.31c-.53,0-.96-.16-1.27-.49-.31-.33-.47-.79-.47-1.38s.16-1.08.47-1.42.73-.51,1.23-.51.89.17,1.19.5.46.8.46,1.39c0,.04,0,.09,0,.16h-2.72c.02.4.14.7.34.92s.46.32.76.32c.23,0,.42-.06.58-.18s.29-.31.38-.57Zm-2.03-.99h2.04c-.03-.31-.1-.53-.23-.69-.2-.24-.45-.36-.77-.36-.28,0-.52.09-.72.28-.19.19-.3.44-.32.76Z"/>
    <path d="m23.16,41.46v-3.63h.56v.55c.14-.26.27-.43.39-.51s.25-.12.4-.12c.21,0,.42.07.64.2l-.21.57c-.15-.09-.3-.13-.45-.13-.14,0-.26.04-.36.12-.11.08-.18.19-.23.34-.07.22-.1.46-.1.72v1.9h-.62Z"/>
    <path d="m25.51,37.15v-.71h.62v.71h-.62Zm0,4.3v-3.63h.62v3.63h-.62Z"/>
    <path d="m29.45,40.13l.61.08c-.07.42-.24.74-.51.98-.27.24-.61.35-1.01.35-.5,0-.9-.16-1.2-.49-.3-.32-.46-.79-.46-1.4,0-.39.06-.73.2-1.03.13-.29.33-.51.6-.66.27-.15.56-.22.87-.22.4,0,.72.1.97.3.25.2.41.48.48.85l-.6.09c-.06-.24-.16-.43-.3-.55-.15-.12-.32-.18-.53-.18-.31,0-.56.11-.76.33-.19.22-.29.57-.29,1.05s.09.84.28,1.06c.19.22.43.33.73.33.24,0,.45-.07.61-.22s.27-.38.31-.68Z"/>
    <path d="m32.97,41.01c-.23.19-.45.33-.66.41-.21.08-.44.12-.68.12-.4,0-.71-.1-.92-.29-.22-.2-.32-.44-.32-.75,0-.18.04-.34.12-.49.08-.15.19-.26.32-.35.13-.09.28-.16.44-.2.12-.03.3-.06.55-.09.5-.06.87-.13,1.1-.21,0-.08,0-.14,0-.16,0-.25-.06-.43-.18-.53-.16-.14-.39-.21-.7-.21-.29,0-.51.05-.64.15-.14.1-.24.28-.31.54l-.6-.08c.06-.26.15-.47.27-.62.13-.16.31-.28.55-.37.24-.08.51-.13.83-.13s.56.04.76.11c.19.07.34.16.43.28.09.11.16.25.19.42.02.1.03.29.03.57v.82c0,.57.01.93.04,1.09.03.15.08.3.16.44h-.65c-.06-.13-.1-.28-.12-.45Zm-.05-1.37c-.22.09-.56.17-1.01.23-.25.04-.43.08-.54.12s-.19.11-.24.2c-.06.09-.09.19-.09.29,0,.16.06.3.19.41s.31.16.55.16.45-.05.64-.16c.19-.1.32-.25.41-.43.07-.14.1-.34.1-.62v-.23Z"/>
    <path d="m34.5,41.46v-3.63h.56v.52c.27-.4.65-.6,1.16-.6.22,0,.42.04.61.12.18.08.32.18.41.31.09.13.16.28.19.45.02.11.03.31.03.6v2.23h-.62v-2.21c0-.25-.02-.44-.07-.56-.05-.12-.13-.22-.26-.3-.12-.07-.27-.11-.43-.11-.26,0-.49.08-.68.25-.19.17-.29.48-.29.95v1.98h-.62Z"/>
    <path d="m40.56,41.46v-5.01h.67v5.01h-.67Z"/>
    <path d="m42.32,41.46v-3.63h.56v.52c.27-.4.65-.6,1.16-.6.22,0,.42.04.61.12.18.08.32.18.41.31.09.13.16.28.19.45.02.11.03.31.03.6v2.23h-.62v-2.21c0-.25-.02-.44-.07-.56-.05-.12-.13-.22-.26-.3-.12-.07-.27-.11-.43-.11-.26,0-.49.08-.68.25-.19.17-.29.48-.29.95v1.98h-.62Z"/>
    <path d="m48.6,41.46v-.46c-.23.36-.57.54-1.02.54-.29,0-.56-.08-.8-.24-.24-.16-.43-.38-.57-.67-.13-.29-.2-.61-.2-.99s.06-.69.18-.99c.12-.29.3-.52.55-.68s.51-.24.81-.24c.22,0,.42.05.59.14.17.09.31.21.42.36v-1.8h.61v5.01h-.57Zm-1.95-1.81c0,.46.1.81.3,1.04s.43.35.7.35.5-.11.69-.33c.19-.22.28-.56.28-1.01,0-.5-.1-.86-.29-1.09-.19-.23-.43-.35-.71-.35s-.5.11-.69.33c-.18.22-.28.58-.28,1.06Z"/>
    <path d="m50.15,37.15v-.71h.62v.71h-.62Zm0,4.3v-3.63h.62v3.63h-.62Z"/>
    <path d="m54.09,41.01c-.23.19-.45.33-.66.41-.21.08-.44.12-.68.12-.4,0-.71-.1-.92-.29-.22-.2-.32-.44-.32-.75,0-.18.04-.34.12-.49.08-.15.19-.26.32-.35.13-.09.28-.16.44-.2.12-.03.3-.06.55-.09.5-.06.87-.13,1.1-.21,0-.08,0-.14,0-.16,0-.25-.06-.43-.18-.53-.16-.14-.39-.21-.7-.21-.29,0-.51.05-.64.15-.14.1-.24.28-.31.54l-.6-.08c.06-.26.15-.47.27-.62.13-.16.31-.28.55-.37.24-.08.51-.13.83-.13s.56.04.76.11c.19.07.34.16.43.28.09.11.16.25.19.42.02.1.03.29.03.57v.82c0,.57.01.93.04,1.09.03.15.08.3.16.44h-.65c-.06-.13-.1-.28-.12-.45Zm-.05-1.37c-.22.09-.56.17-1.01.23-.25.04-.43.08-.54.12s-.19.11-.24.2c-.06.09-.09.19-.09.29,0,.16.06.3.19.41s.31.16.55.16.45-.05.64-.16c.19-.1.32-.25.41-.43.07-.14.1-.34.1-.62v-.23Z"/>
    <path d="m55.62,41.46v-3.63h.56v.52c.27-.4.65-.6,1.16-.6.22,0,.42.04.61.12.18.08.32.18.41.31.09.13.16.28.19.45.02.11.03.31.03.6v2.23h-.62v-2.21c0-.25-.02-.44-.07-.56-.05-.12-.13-.22-.26-.3-.12-.07-.27-.11-.43-.11-.26,0-.49.08-.68.25-.19.17-.29.48-.29.95v1.98h-.62Z"/>
    <path d="m59.07,41.54l1.46-5.18h.49l-1.46,5.18h-.5Z"/>
    <path d="m18.01,49.86l1.93-5.01h.72l2.06,5.01h-.76l-.59-1.52h-2.1l-.55,1.52h-.71Zm1.45-2.06h1.71l-.53-1.39c-.16-.42-.28-.77-.36-1.04-.06.32-.15.64-.27.96l-.55,1.47Z"/>
    <path d="m23.16,49.86v-5.01h.62v5.01h-.62Z"/>
    <path d="m27.12,49.41c-.23.19-.45.33-.66.41-.21.08-.44.12-.68.12-.4,0-.71-.1-.92-.29-.22-.2-.32-.44-.32-.75,0-.18.04-.34.12-.49.08-.15.19-.26.32-.35.13-.09.28-.16.44-.2.12-.03.3-.06.55-.09.5-.06.87-.13,1.1-.21,0-.08,0-.14,0-.16,0-.25-.06-.43-.18-.53-.16-.14-.39-.21-.7-.21-.29,0-.51.05-.64.15-.14.1-.24.28-.31.54l-.6-.08c.06-.26.15-.47.27-.62.13-.16.31-.28.55-.37.24-.08.51-.13.83-.13s.56.04.76.11c.19.07.34.16.43.28.09.11.16.25.19.42.02.1.03.29.03.57v.82c0,.57.01.93.04,1.09.03.15.08.3.16.44h-.65c-.06-.13-.1-.28-.12-.45Zm-.05-1.37c-.22.09-.56.17-1.01.23-.25.04-.43.08-.54.12s-.19.11-.24.2c-.06.09-.09.19-.09.29,0,.16.06.3.19.41s.31.16.55.16.45-.05.64-.16c.19-.1.32-.25.41-.43.07-.14.1-.34.1-.62v-.23Z"/>
    <path d="m28.4,48.77l.61-.1c.03.24.13.43.29.56s.38.19.66.19.49-.06.63-.17c.14-.11.21-.25.21-.4,0-.14-.06-.25-.18-.33-.08-.05-.3-.12-.63-.21-.45-.11-.77-.21-.94-.3-.18-.08-.31-.2-.4-.34-.09-.15-.14-.31-.14-.49,0-.16.04-.31.11-.45.07-.14.18-.25.3-.34.1-.07.23-.13.39-.18.17-.05.34-.07.53-.07.29,0,.54.04.75.12s.38.19.48.33c.1.14.17.33.21.56l-.6.08c-.03-.19-.11-.33-.24-.44-.13-.1-.32-.16-.56-.16-.28,0-.49.05-.61.14-.12.09-.18.2-.18.33,0,.08.02.15.08.22.05.07.13.12.24.16.06.02.24.08.55.16.44.12.74.21.92.29.17.07.31.18.41.32.1.14.15.32.15.53s-.06.4-.18.58c-.12.18-.29.32-.52.42-.23.1-.48.15-.77.15-.47,0-.83-.1-1.08-.29s-.41-.49-.48-.87Z"/>
    <path d="m32.17,49.86v-5.01h.62v2.86l1.46-1.48h.8l-1.39,1.35,1.53,2.28h-.76l-1.21-1.86-.44.42v1.44h-.62Z"/>
    <path d="m38.06,49.41c-.23.19-.45.33-.66.41-.21.08-.44.12-.68.12-.4,0-.71-.1-.92-.29-.22-.2-.32-.44-.32-.75,0-.18.04-.34.12-.49.08-.15.19-.26.32-.35.13-.09.28-.16.44-.2.12-.03.3-.06.55-.09.5-.06.87-.13,1.1-.21,0-.08,0-.14,0-.16,0-.25-.06-.43-.18-.53-.16-.14-.39-.21-.7-.21-.29,0-.51.05-.64.15-.14.1-.24.28-.31.54l-.6-.08c.06-.26.15-.47.27-.62.13-.16.31-.28.55-.37.24-.08.51-.13.83-.13s.56.04.76.11c.19.07.34.16.43.28.09.11.16.25.19.42.02.1.03.29.03.57v.82c0,.57.01.93.04,1.09.03.15.08.3.16.44h-.65c-.06-.13-.1-.28-.12-.45Zm-.05-1.37c-.22.09-.56.17-1.01.23-.25.04-.43.08-.54.12s-.19.11-.24.2c-.06.09-.09.19-.09.29,0,.16.06.3.19.41s.31.16.55.16.45-.05.64-.16c.19-.1.32-.25.41-.43.07-.14.1-.34.1-.62v-.23Z"/>
    <path d="m41.62,49.86v-5.01h.68l2.64,3.93v-3.93h.64v5.01h-.68l-2.64-3.94v3.94h-.64Z"/>
    <path d="m49.01,49.41c-.23.19-.45.33-.66.41-.21.08-.44.12-.68.12-.4,0-.71-.1-.92-.29-.22-.2-.32-.44-.32-.75,0-.18.04-.34.12-.49.08-.15.19-.26.32-.35.13-.09.28-.16.44-.2.12-.03.3-.06.55-.09.5-.06.87-.13,1.1-.21,0-.08,0-.14,0-.16,0-.25-.06-.43-.18-.53-.16-.14-.39-.21-.7-.21-.29,0-.51.05-.64.15-.14.1-.24.28-.31.54l-.6-.08c.06-.26.15-.47.27-.62.13-.16.31-.28.55-.37.24-.08.51-.13.83-.13s.56.04.76.11c.19.07.34.16.43.28.09.11.16.25.19.42.02.1.03.29.03.57v.82c0,.57.01.93.04,1.09.03.15.08.3.16.44h-.65c-.06-.13-.1-.28-.12-.45Zm-.05-1.37c-.22.09-.56.17-1.01.23-.25.04-.43.08-.54.12s-.19.11-.24.2c-.06.09-.09.19-.09.29,0,.16.06.3.19.41s.31.16.55.16.45-.05.64-.16c.19-.1.32-.25.41-.43.07-.14.1-.34.1-.62v-.23Z"/>
    <path d="m51.89,49.31l.09.54c-.17.04-.33.05-.47.05-.22,0-.4-.04-.52-.11s-.21-.16-.26-.28c-.05-.11-.08-.36-.08-.73v-2.09h-.45v-.48h.45v-.9l.61-.37v1.27h.62v.48h-.62v2.12c0,.18.01.29.03.34.02.05.06.09.11.12s.12.04.21.04c.07,0,.16,0,.27-.02Z"/>
    <path d="m52.5,45.55v-.71h.62v.71h-.62Zm0,4.3v-3.63h.62v3.63h-.62Z"/>
    <path d="m55.07,49.86l-1.39-3.63h.65l.78,2.17c.08.23.16.48.23.73.05-.19.13-.42.23-.69l.81-2.21h.64l-1.38,3.63h-.58Z"/>
    <path d="m60.07,48.69l.64.08c-.1.37-.29.66-.56.86s-.62.31-1.04.31c-.53,0-.96-.16-1.27-.49-.31-.33-.47-.79-.47-1.38s.16-1.08.47-1.42.73-.51,1.23-.51.89.17,1.19.5.46.8.46,1.39c0,.04,0,.09,0,.16h-2.72c.02.4.14.7.34.92s.46.32.76.32c.23,0,.42-.06.58-.18s.29-.31.38-.57Zm-2.03-.99h2.04c-.03-.31-.1-.53-.23-.69-.2-.24-.45-.36-.77-.36-.28,0-.52.09-.72.28-.19.19-.3.44-.32.76Z"/>
  </g>
  <g>
    <path d="m45.87,15.26v-4.16h-1.49v-.85h4v.85h-1.49v4.16h-1.02Z"/>
    <path d="m48.8,13.4c0-.32.08-.63.24-.93.16-.3.38-.53.67-.68s.61-.24.97-.24c.55,0,1,.18,1.36.54.35.36.53.81.53,1.35s-.18,1-.53,1.37c-.36.36-.8.54-1.34.54-.33,0-.65-.08-.96-.23s-.53-.37-.69-.66c-.16-.29-.24-.64-.24-1.06Zm.99.05c0,.36.09.64.26.83.17.19.38.29.64.29s.46-.1.63-.29c.17-.19.26-.47.26-.83s-.08-.63-.26-.82c-.17-.19-.38-.29-.63-.29s-.46.1-.64.29c-.17.19-.26.47-.26.83Z"/>
    <path d="m54.99,11.63v.77h-.66v1.46c0,.3,0,.47.02.52.01.05.04.09.09.12.04.03.1.05.16.05.09,0,.22-.03.39-.09l.08.75c-.22.1-.48.14-.76.14-.17,0-.33-.03-.47-.09-.14-.06-.24-.13-.31-.23-.06-.09-.11-.22-.14-.37-.02-.11-.03-.34-.03-.68v-1.58h-.44v-.77h.44v-.72l.97-.56v1.28h.66Z"/>
    <path d="m56.39,12.74l-.88-.16c.1-.35.27-.61.51-.78.24-.17.6-.25,1.07-.25.43,0,.75.05.96.15.21.1.36.23.44.39.09.16.13.44.13.86v1.12c-.01.32,0,.55.04.71.03.15.09.31.17.49h-.95c-.03-.06-.06-.16-.09-.28-.02-.06-.03-.09-.03-.11-.17.16-.34.28-.53.36-.19.08-.39.12-.6.12-.38,0-.67-.1-.89-.3s-.32-.46-.32-.77c0-.21.05-.39.15-.55.1-.16.24-.28.41-.37.18-.08.43-.16.77-.22.45-.08.76-.16.94-.24v-.1c0-.18-.05-.32-.14-.4-.09-.08-.26-.12-.52-.12-.17,0-.31.03-.4.1-.1.07-.17.19-.23.35Zm1.29.78c-.12.04-.32.09-.59.15-.27.06-.44.11-.53.17-.13.09-.19.2-.19.34s.05.25.15.35.23.15.38.15c.17,0,.34-.06.5-.17.12-.09.19-.19.23-.32.02-.08.04-.24.04-.47v-.19Z"/>
    <path d="m59.58,15.26v-5.01h.96v5.01h-.96Z"/>
  </g>
  <g>
    <path d="m13.85,29.06v-5.01h2.14c.54,0,.93.04,1.17.13.24.09.44.25.59.48s.22.49.22.79c0,.38-.11.69-.33.93-.22.25-.55.4-1,.46.22.13.4.27.54.42s.34.42.58.81l.61.98h-1.22l-.73-1.09c-.26-.39-.44-.64-.54-.74-.1-.1-.2-.17-.31-.21-.11-.04-.28-.06-.51-.06h-.21v2.09h-1.02Zm1.02-2.89h.75c.49,0,.79-.02.91-.06.12-.04.22-.11.28-.21.07-.1.1-.23.1-.38,0-.17-.04-.3-.14-.41-.09-.1-.22-.17-.38-.2-.08-.01-.33-.02-.74-.02h-.79v1.27Z"/>
    <path d="m19.64,26.53l-.88-.16c.1-.35.27-.61.51-.78.24-.17.6-.25,1.07-.25.43,0,.75.05.96.15.21.1.36.23.44.39.09.16.13.44.13.86v1.12c-.01.32,0,.55.04.71.03.15.09.31.17.49h-.95c-.03-.06-.06-.16-.09-.28-.02-.06-.03-.09-.03-.11-.17.16-.34.28-.53.36-.19.08-.39.12-.6.12-.38,0-.67-.1-.89-.3s-.32-.46-.32-.77c0-.21.05-.39.15-.55.1-.16.24-.28.41-.37.18-.08.43-.16.77-.22.45-.08.76-.16.94-.24v-.1c0-.18-.05-.32-.14-.4-.09-.08-.26-.12-.52-.12-.17,0-.31.03-.4.1-.1.07-.17.19-.23.35Zm1.29.78c-.12.04-.32.09-.59.15-.27.06-.44.11-.53.17-.13.09-.19.2-.19.34s.05.25.15.35.23.15.38.15c.17,0,.34-.06.5-.17.12-.09.19-.19.23-.32.02-.08.04-.24.04-.47v-.19Z"/>
    <path d="m26.01,26.5l-.95.17c-.03-.19-.1-.33-.22-.43s-.26-.14-.44-.14c-.24,0-.43.08-.58.25-.14.17-.21.44-.21.83,0,.43.07.73.22.91s.34.27.59.27c.18,0,.33-.05.45-.16.12-.1.2-.28.25-.53l.95.16c-.1.43-.29.76-.57.98s-.65.33-1.12.33c-.53,0-.96-.17-1.28-.5-.32-.33-.48-.8-.48-1.39s.16-1.07.48-1.4c.32-.33.75-.5,1.29-.5.44,0,.8.1,1.06.29.26.19.45.48.56.87Z"/>
    <path d="m28.86,27.9l.96.16c-.12.35-.32.62-.59.8-.27.18-.6.28-1,.28-.63,0-1.1-.21-1.41-.62-.24-.33-.36-.75-.36-1.25,0-.6.16-1.07.47-1.41.32-.34.72-.51,1.2-.51.54,0,.97.18,1.28.54.31.36.46.9.45,1.64h-2.42c0,.28.08.51.23.67.15.16.33.24.56.24.15,0,.28-.04.38-.12s.18-.21.23-.4Zm.06-.97c0-.28-.08-.49-.22-.63-.14-.15-.3-.22-.5-.22-.21,0-.38.08-.52.23-.14.15-.21.36-.2.62h1.44Z"/>
    <path d="m30.14,29.14l1.25-5.18h.72l-1.26,5.18h-.71Z"/>
    <path d="m34.72,27.9l.96.16c-.12.35-.32.62-.59.8-.27.18-.6.28-1,.28-.63,0-1.1-.21-1.41-.62-.24-.33-.36-.75-.36-1.25,0-.6.16-1.07.47-1.41.32-.34.72-.51,1.2-.51.54,0,.97.18,1.28.54.31.36.46.9.45,1.64h-2.42c0,.28.08.51.23.67.15.16.33.24.56.24.15,0,.28-.04.38-.12s.18-.21.23-.4Zm.06-.97c0-.28-.08-.49-.22-.63-.14-.15-.3-.22-.5-.22-.21,0-.38.08-.52.23-.14.15-.21.36-.2.62h1.44Z"/>
    <path d="m38.2,25.43v.77h-.66v1.46c0,.3,0,.47.02.52.01.05.04.09.09.12.04.03.1.05.16.05.09,0,.22-.03.39-.09l.08.75c-.22.1-.48.14-.76.14-.17,0-.33-.03-.47-.09-.14-.06-.24-.13-.31-.23-.06-.09-.11-.22-.14-.37-.02-.11-.03-.34-.03-.68v-1.58h-.44v-.77h.44v-.72l.97-.56v1.28h.66Z"/>
    <path d="m39.83,24.05v1.84c.31-.36.68-.54,1.12-.54.22,0,.42.04.6.12.18.08.31.19.4.31s.15.27.19.42.05.4.05.72v2.13h-.97v-1.92c0-.38-.02-.62-.05-.72s-.1-.18-.19-.24c-.09-.06-.21-.09-.35-.09-.16,0-.3.04-.43.12-.13.08-.22.19-.28.35-.06.16-.09.39-.09.69v1.82h-.96v-5.01h.96Z"/>
    <path d="m46.48,29.06h-.97v-1.85c0-.39-.02-.65-.06-.76-.04-.11-.11-.2-.2-.27-.09-.06-.2-.1-.33-.1-.17,0-.32.05-.45.14s-.22.21-.27.36-.07.43-.07.83v1.64h-.96v-3.63h.9v.53c.32-.41.72-.62,1.2-.62.21,0,.41.04.58.11.18.08.31.17.4.29s.15.25.19.4c.04.15.05.37.05.65v2.26Z"/>
    <path d="m47.46,24.93v-.89h.96v.89h-.96Zm0,4.12v-3.63h.96v3.63h-.96Z"/>
    <path d="m52.59,26.5l-.95.17c-.03-.19-.1-.33-.22-.43s-.26-.14-.44-.14c-.24,0-.43.08-.58.25-.14.17-.21.44-.21.83,0,.43.07.73.22.91s.34.27.59.27c.18,0,.33-.05.45-.16.12-.1.2-.28.25-.53l.95.16c-.1.43-.29.76-.57.98s-.65.33-1.12.33c-.53,0-.96-.17-1.28-.5-.32-.33-.48-.8-.48-1.39s.16-1.07.48-1.4c.32-.33.75-.5,1.29-.5.44,0,.8.1,1.06.29.26.19.45.48.56.87Z"/>
    <path d="m53.32,24.93v-.89h.96v.89h-.96Zm0,4.12v-3.63h.96v3.63h-.96Z"/>
    <path d="m56.95,25.43v.77h-.66v1.46c0,.3,0,.47.02.52.01.05.04.09.09.12.04.03.1.05.16.05.09,0,.22-.03.39-.09l.08.75c-.22.1-.48.14-.76.14-.17,0-.33-.03-.47-.09-.14-.06-.24-.13-.31-.23-.06-.09-.11-.22-.14-.37-.02-.11-.03-.34-.03-.68v-1.58h-.44v-.77h.44v-.72l.97-.56v1.28h.66Z"/>
    <path d="m57.16,25.43h1.03l.87,2.58.85-2.58h1l-1.29,3.49-.23.63c-.08.21-.17.37-.24.49s-.17.2-.26.27c-.1.07-.22.12-.37.16s-.31.06-.49.06-.37-.02-.55-.06l-.09-.75c.15.03.29.04.41.04.22,0,.39-.07.5-.2.11-.13.19-.3.25-.5l-1.39-3.64Z"/>
  </g>
  <g>
    <path d="m44.34,86.37v-5.01h1.89c.38,0,.69.05.93.15.23.1.41.26.55.47.13.21.2.43.2.66,0,.21-.06.42-.18.6-.12.19-.29.34-.53.46.3.09.54.24.7.45.16.21.25.47.25.76,0,.23-.05.45-.15.65-.1.2-.22.36-.37.47s-.33.19-.55.25c-.22.06-.49.08-.81.08h-1.92Zm.67-2.91h1.09c.3,0,.51-.02.64-.06.17-.05.3-.13.38-.25s.13-.26.13-.44-.04-.31-.12-.44c-.08-.13-.19-.21-.34-.26-.15-.05-.4-.07-.77-.07h-1.01v1.51Zm0,2.31h1.25c.22,0,.37,0,.45-.02.15-.03.28-.07.38-.14s.19-.16.25-.28c.07-.12.1-.26.1-.42,0-.19-.05-.35-.14-.49-.1-.14-.23-.23-.4-.29-.17-.06-.42-.08-.74-.08h-1.16v1.72Z"/>
    <path d="m48.97,86.37v-5.01h.62v5.01h-.62Z"/>
    <path d="m52.92,85.93c-.23.19-.45.33-.66.41-.21.08-.44.12-.68.12-.4,0-.71-.1-.92-.29-.22-.2-.32-.44-.32-.75,0-.18.04-.34.12-.49.08-.15.19-.26.32-.35.13-.09.28-.16.44-.2.12-.03.3-.06.55-.09.5-.06.87-.13,1.1-.21,0-.08,0-.14,0-.16,0-.25-.06-.43-.18-.53-.16-.14-.39-.21-.7-.21-.29,0-.51.05-.64.15-.14.1-.24.28-.31.54l-.6-.08c.06-.26.15-.47.27-.62.13-.16.31-.28.55-.37.24-.08.51-.13.83-.13s.56.04.76.11c.19.07.34.16.43.28.09.11.16.25.19.42.02.1.03.29.03.57v.82c0,.57.01.93.04,1.09.03.15.08.3.16.44h-.65c-.06-.13-.1-.28-.12-.45Zm-.05-1.37c-.22.09-.56.17-1.01.23-.25.04-.43.08-.54.12s-.19.11-.24.2c-.06.09-.09.19-.09.29,0,.16.06.3.19.41s.31.16.55.16.45-.05.64-.16c.19-.1.32-.25.41-.43.07-.14.1-.34.1-.62v-.23Z"/>
    <path d="m56.84,85.05l.61.08c-.07.42-.24.74-.51.98-.27.24-.61.35-1.01.35-.5,0-.9-.16-1.2-.49-.3-.32-.46-.79-.46-1.4,0-.39.06-.73.2-1.03.13-.29.33-.51.6-.66.27-.15.56-.22.87-.22.4,0,.72.1.97.3.25.2.41.48.48.85l-.6.09c-.06-.24-.16-.43-.3-.55-.15-.12-.32-.18-.53-.18-.31,0-.56.11-.76.33-.19.22-.29.57-.29,1.05s.09.84.28,1.06c.19.22.43.33.73.33.24,0,.45-.07.61-.22s.27-.38.31-.68Z"/>
    <path d="m57.98,86.37v-5.01h.62v2.86l1.46-1.48h.8l-1.39,1.35,1.53,2.28h-.76l-1.21-1.86-.44.42v1.44h-.62Z"/>
  </g>
  <rect class="cls-7" x="64.22" y="211.79" width="234.84" height="12.31"/>
  <rect class="cls-7" x="64.22" y="193.18" width="302.14" height="12.31"/>
  <rect class="cls-7" x="64.22" y="157.28" width="297.78" height="12.31"/>
  <rect class="cls-7" x="64.22" y="137.93" width="257.15" height="12.31"/>
  <rect class="cls-7" x="64.22" y="118.07" width="292.01" height="12.31"/>
  <rect class="cls-7" x="64.22" y="98.21" width="298.6" height="12.31"/>
  <rect class="cls-7" x="64.22" y="78.35" width="371.56" height="12.31"/>
  <rect class="cls-7" x="64.22" y="58.49" width="222.44" height="12.31"/>
  <rect class="cls-7" x="64.22" y="37.64" width="309.43" height="12.31"/>
  <rect class="cls-6" x="64.22" y="7.42" width="276.99" height="12.31"/>
  <rect class="cls-1" x="343.22" y="9.22" width="16.51" height="8.23"/>
  <rect class="cls-1" x="379.29" y="38.84" width="16.51" height="8.23"/>
  <g>
    <path d="m52.61,219.81v-5.01h.68l2.63,3.93v-3.93h.64v5.01h-.68l-2.63-3.94v3.94h-.64Z"/>
    <path d="m57.37,218c0-.67.19-1.17.56-1.49.31-.27.69-.4,1.14-.4.5,0,.91.16,1.22.49.32.33.48.78.48,1.36,0,.47-.07.83-.21,1.1-.14.27-.34.48-.61.62s-.56.22-.88.22c-.51,0-.92-.16-1.23-.49-.31-.33-.47-.8-.47-1.41Zm.63,0c0,.46.1.81.3,1.04.2.23.46.35.77.35s.56-.12.76-.35c.2-.23.3-.59.3-1.06,0-.45-.1-.79-.31-1.02-.2-.23-.46-.35-.76-.35s-.56.12-.77.35-.3.58-.3,1.04Z"/>
  </g>
  <g>
    <path d="m50.92,201.2v-2.12l-1.93-2.89h.81l.99,1.51c.18.28.35.56.51.85.15-.26.33-.56.55-.89l.97-1.47h.77l-2,2.89v2.12h-.66Z"/>
    <path d="m56.58,200.03l.64.08c-.1.37-.29.66-.56.86s-.62.31-1.04.31c-.53,0-.95-.16-1.26-.49-.31-.33-.47-.79-.47-1.38s.16-1.08.47-1.42c.31-.34.72-.51,1.22-.51s.88.17,1.19.5c.31.33.46.8.46,1.39,0,.04,0,.09,0,.16h-2.71c.02.4.14.7.34.92s.46.32.76.32c.23,0,.42-.06.58-.18.16-.12.29-.31.38-.57Zm-2.02-.99h2.03c-.03-.31-.1-.53-.23-.69-.2-.24-.45-.36-.76-.36-.28,0-.52.09-.71.28-.19.19-.3.44-.32.76Z"/>
    <path d="m57.74,200.11l.61-.1c.03.24.13.43.29.56.16.13.37.19.65.19s.49-.06.63-.17c.14-.11.21-.25.21-.4,0-.14-.06-.25-.18-.33-.08-.05-.29-.12-.63-.21-.45-.11-.76-.21-.94-.3-.17-.08-.31-.2-.4-.34-.09-.15-.13-.31-.13-.49,0-.16.04-.31.11-.45.07-.14.17-.25.3-.34.1-.07.23-.13.39-.18.17-.05.34-.07.53-.07.28,0,.53.04.75.12.22.08.37.19.48.33.1.14.17.33.21.56l-.6.08c-.03-.19-.11-.33-.24-.44-.13-.1-.32-.16-.56-.16-.28,0-.48.05-.6.14s-.18.2-.18.33c0,.08.02.15.08.22.05.07.13.12.24.16.06.02.24.08.54.16.44.12.74.21.91.29.17.07.31.18.4.32.1.14.15.32.15.53s-.06.4-.18.58c-.12.18-.29.32-.52.42-.23.1-.48.15-.77.15-.47,0-.83-.1-1.08-.29s-.4-.49-.47-.87Z"/>
  </g>
  <g>
    <path d="m4.52,165.31v-4.42h-1.65v-.59h3.97v.59h-1.66v4.42h-.66Z"/>
    <path d="m8.11,165.31l-1.11-3.63h.64l.58,2.1.22.78s.07-.29.19-.75l.58-2.13h.63l.54,2.11.18.69.21-.7.62-2.1h.6l-1.13,3.63h-.64l-.58-2.17-.14-.62-.73,2.79h-.64Z"/>
    <path d="m12.26,163.49c0-.67.19-1.17.56-1.49.31-.27.69-.4,1.14-.4.5,0,.91.16,1.22.49.32.33.48.78.48,1.36,0,.47-.07.83-.21,1.1-.14.27-.34.48-.61.62s-.56.22-.88.22c-.51,0-.92-.16-1.23-.49-.31-.33-.47-.8-.47-1.41Zm.63,0c0,.46.1.81.3,1.04.2.23.46.35.77.35s.56-.12.76-.35c.2-.23.3-.59.3-1.06,0-.45-.1-.79-.31-1.02-.2-.23-.46-.35-.76-.35s-.56.12-.77.35-.3.58-.3,1.04Z"/>
    <path d="m18.1,163.49c0-.67.19-1.17.56-1.49.31-.27.69-.4,1.14-.4.5,0,.91.16,1.22.49.32.33.48.78.48,1.36,0,.47-.07.83-.21,1.1-.14.27-.34.48-.61.62s-.56.22-.88.22c-.51,0-.92-.16-1.23-.49-.31-.33-.47-.8-.47-1.41Zm.63,0c0,.46.1.81.3,1.04.2.23.46.35.77.35s.56-.12.76-.35c.2-.23.3-.59.3-1.06,0-.45-.1-.79-.31-1.02-.2-.23-.46-.35-.76-.35s-.56.12-.77.35-.3.58-.3,1.04Z"/>
    <path d="m22.21,165.31v-3.63h.55v.55c.14-.26.27-.43.39-.51s.25-.12.39-.12c.21,0,.42.07.63.2l-.21.57c-.15-.09-.3-.13-.45-.13-.13,0-.25.04-.36.12-.11.08-.18.19-.23.34-.07.22-.1.46-.1.72v1.9h-.61Z"/>
    <path d="m26.49,165.31v-3.63h.55v.51c.11-.18.27-.32.45-.43.19-.11.4-.16.65-.16.27,0,.49.06.66.17s.29.27.36.47c.29-.42.66-.64,1.12-.64.36,0,.64.1.83.3.19.2.29.51.29.92v2.49h-.61v-2.29c0-.25-.02-.42-.06-.53-.04-.11-.11-.2-.22-.26s-.23-.1-.37-.1c-.25,0-.47.08-.64.25-.17.17-.25.44-.25.81v2.11h-.61v-2.36c0-.27-.05-.48-.15-.62s-.26-.21-.49-.21c-.17,0-.33.05-.48.14s-.25.22-.32.4-.1.43-.1.76v1.88h-.61Z"/>
    <path d="m32.09,163.49c0-.67.19-1.17.56-1.49.31-.27.69-.4,1.14-.4.5,0,.91.16,1.22.49.32.33.48.78.48,1.36,0,.47-.07.83-.21,1.1-.14.27-.34.48-.61.62s-.56.22-.88.22c-.51,0-.92-.16-1.23-.49-.31-.33-.47-.8-.47-1.41Zm.63,0c0,.46.1.81.3,1.04.2.23.46.35.77.35s.56-.12.76-.35c.2-.23.3-.59.3-1.06,0-.45-.1-.79-.31-1.02-.2-.23-.46-.35-.76-.35s-.56.12-.77.35-.3.58-.3,1.04Z"/>
    <path d="m36.21,165.31v-3.63h.55v.55c.14-.26.27-.43.39-.51s.25-.12.39-.12c.21,0,.42.07.63.2l-.21.57c-.15-.09-.3-.13-.45-.13-.13,0-.25.04-.36.12-.11.08-.18.19-.23.34-.07.22-.1.46-.1.72v1.9h-.61Z"/>
    <path d="m41.03,164.14l.64.08c-.1.37-.29.66-.56.86s-.62.31-1.04.31c-.53,0-.95-.16-1.26-.49-.31-.33-.47-.79-.47-1.38s.16-1.08.47-1.42c.31-.34.72-.51,1.22-.51s.88.17,1.19.5c.31.33.46.8.46,1.39,0,.04,0,.09,0,.16h-2.71c.02.4.14.7.34.92s.46.32.76.32c.23,0,.42-.06.58-.18.16-.12.29-.31.38-.57Zm-2.02-.99h2.03c-.03-.31-.1-.53-.23-.69-.2-.24-.45-.36-.76-.36-.28,0-.52.09-.71.28-.19.19-.3.44-.32.76Z"/>
    <path d="m44.37,165.31v-3.63h.55v.55c.14-.26.27-.43.39-.51s.25-.12.39-.12c.21,0,.42.07.63.2l-.21.57c-.15-.09-.3-.13-.45-.13-.13,0-.25.04-.36.12-.11.08-.18.19-.23.34-.07.22-.1.46-.1.72v1.9h-.61Z"/>
    <path d="m49.08,164.86c-.23.19-.45.33-.66.41-.21.08-.44.12-.68.12-.4,0-.71-.1-.92-.29-.21-.2-.32-.44-.32-.75,0-.18.04-.34.12-.49.08-.15.19-.26.32-.35s.28-.16.44-.2c.12-.03.3-.06.55-.09.5-.06.86-.13,1.1-.21,0-.08,0-.14,0-.16,0-.25-.06-.43-.17-.53-.16-.14-.39-.21-.7-.21-.29,0-.5.05-.64.15-.14.1-.24.28-.31.54l-.6-.08c.05-.26.14-.47.27-.62.13-.16.31-.28.54-.37.24-.08.51-.13.82-.13s.56.04.76.11c.19.07.34.16.43.28.09.11.15.25.19.42.02.1.03.29.03.57v.82c0,.57.01.93.04,1.09.03.15.08.3.16.44h-.64c-.06-.13-.1-.28-.12-.45Zm-.05-1.37c-.22.09-.56.17-1,.23-.25.04-.43.08-.54.12-.1.05-.19.11-.24.2-.06.09-.09.19-.09.29,0,.16.06.3.19.41.12.11.31.16.54.16s.45-.05.63-.16c.18-.1.32-.25.41-.43.07-.14.1-.34.1-.62v-.23Z"/>
    <path d="m52.97,163.98l.6.08c-.07.42-.24.74-.51.98-.27.24-.61.35-1,.35-.5,0-.9-.16-1.2-.49-.3-.32-.45-.79-.45-1.4,0-.39.06-.73.19-1.03.13-.29.33-.51.59-.66.27-.15.55-.22.87-.22.39,0,.72.1.97.3.25.2.41.48.48.85l-.6.09c-.06-.24-.16-.43-.3-.55s-.32-.18-.52-.18c-.31,0-.56.11-.75.33-.19.22-.29.57-.29,1.05s.09.84.28,1.06c.19.22.43.33.73.33.24,0,.44-.07.6-.22s.26-.38.31-.68Z"/>
    <path d="m56.58,164.14l.64.08c-.1.37-.29.66-.56.86s-.62.31-1.04.31c-.53,0-.95-.16-1.26-.49-.31-.33-.47-.79-.47-1.38s.16-1.08.47-1.42c.31-.34.72-.51,1.22-.51s.88.17,1.19.5c.31.33.46.8.46,1.39,0,.04,0,.09,0,.16h-2.71c.02.4.14.7.34.92s.46.32.76.32c.23,0,.42-.06.58-.18.16-.12.29-.31.38-.57Zm-2.02-.99h2.03c-.03-.31-.1-.53-.23-.69-.2-.24-.45-.36-.76-.36-.28,0-.52.09-.71.28-.19.19-.3.44-.32.76Z"/>
    <path d="m57.74,164.23l.61-.1c.03.24.13.43.29.56.16.13.37.19.65.19s.49-.06.63-.17c.14-.11.21-.25.21-.4,0-.14-.06-.25-.18-.33-.08-.05-.29-.12-.63-.21-.45-.11-.76-.21-.94-.3-.17-.08-.31-.2-.4-.34-.09-.15-.13-.31-.13-.49,0-.16.04-.31.11-.45.07-.14.17-.25.3-.34.1-.07.23-.13.39-.18.17-.05.34-.07.53-.07.28,0,.53.04.75.12.22.08.37.19.48.33.1.14.17.33.21.56l-.6.08c-.03-.19-.11-.33-.24-.44-.13-.1-.32-.16-.56-.16-.28,0-.48.05-.6.14s-.18.2-.18.33c0,.08.02.15.08.22.05.07.13.12.24.16.06.02.24.08.54.16.44.12.74.21.91.29.17.07.31.18.4.32.1.14.15.32.15.53s-.06.4-.18.58c-.12.18-.29.32-.52.42-.23.1-.48.15-.77.15-.47,0-.83-.1-1.08-.29s-.4-.49-.47-.87Z"/>
  </g>
  <g>
    <path d="m44.55,145.95l-1.33-5.01h.68l.76,3.28c.08.34.15.69.21,1.03.13-.54.2-.84.23-.93l.95-3.38h.8l.72,2.54c.18.63.31,1.22.39,1.77.06-.32.15-.68.25-1.09l.79-3.22h.67l-1.37,5.01h-.64l-1.06-3.82c-.09-.32-.14-.52-.16-.59-.05.23-.1.43-.15.59l-1.06,3.82h-.68Z"/>
    <path d="m50.21,145.95v-5.01h.61v1.8c.29-.33.65-.5,1.09-.5.27,0,.5.05.7.16.2.11.34.25.43.44s.13.46.13.81v2.3h-.61v-2.3c0-.31-.07-.53-.2-.67-.13-.14-.32-.21-.57-.21-.18,0-.35.05-.51.14-.16.09-.27.22-.34.38s-.1.39-.1.67v1.99h-.61Z"/>
    <path d="m54.1,141.65v-.71h.61v.71h-.61Zm0,4.3v-3.63h.61v3.63h-.61Z"/>
    <path d="m56.99,145.4l.09.54c-.17.04-.33.05-.46.05-.22,0-.4-.04-.52-.11s-.21-.16-.26-.28c-.05-.11-.08-.36-.08-.73v-2.09h-.45v-.48h.45v-.9l.61-.37v1.27h.62v.48h-.62v2.12c0,.18.01.29.03.34.02.05.06.09.11.12.05.03.12.04.21.04.07,0,.16,0,.27-.02Z"/>
    <path d="m60.08,144.78l.64.08c-.1.37-.29.66-.56.86s-.62.31-1.04.31c-.53,0-.95-.16-1.26-.49-.31-.33-.47-.79-.47-1.38s.16-1.08.47-1.42c.31-.34.72-.51,1.22-.51s.88.17,1.19.5c.31.33.46.8.46,1.39,0,.04,0,.09,0,.16h-2.71c.02.4.14.7.34.92s.46.32.76.32c.23,0,.42-.06.58-.18.16-.12.29-.31.38-.57Zm-2.02-.99h2.03c-.03-.31-.1-.53-.23-.69-.2-.24-.45-.36-.76-.36-.28,0-.52.09-.71.28-.19.19-.3.44-.32.76Z"/>
  </g>
  <g>
    <path d="m14.02,126.09v-5.01h1.89c.33,0,.59.02.76.05.25.04.45.12.62.23.17.11.3.28.4.48.1.21.15.44.15.68,0,.43-.14.79-.41,1.08-.27.29-.76.44-1.47.44h-1.28v2.04h-.66Zm.66-2.63h1.29c.43,0,.73-.08.91-.24.18-.16.27-.38.27-.67,0-.21-.05-.39-.16-.54-.11-.15-.25-.25-.42-.3-.11-.03-.32-.04-.62-.04h-1.28v1.79Z"/>
    <path d="m20.98,125.64c-.23.19-.45.33-.66.41-.21.08-.44.12-.68.12-.4,0-.71-.1-.92-.29-.21-.2-.32-.44-.32-.75,0-.18.04-.34.12-.49.08-.15.19-.26.32-.35s.28-.16.44-.2c.12-.03.3-.06.55-.09.5-.06.86-.13,1.1-.21,0-.08,0-.14,0-.16,0-.25-.06-.43-.17-.53-.16-.14-.39-.21-.7-.21-.29,0-.5.05-.64.15-.14.1-.24.28-.31.54l-.6-.08c.05-.26.14-.47.27-.62.13-.16.31-.28.54-.37.24-.08.51-.13.82-.13s.56.04.76.11c.19.07.34.16.43.28.09.11.15.25.19.42.02.1.03.29.03.57v.82c0,.57.01.93.04,1.09.03.15.08.3.16.44h-.64c-.06-.13-.1-.28-.12-.45Zm-.05-1.37c-.22.09-.56.17-1,.23-.25.04-.43.08-.54.12-.1.05-.19.11-.24.2-.06.09-.09.19-.09.29,0,.16.06.3.19.41.12.11.31.16.54.16s.45-.05.63-.16c.18-.1.32-.25.41-.43.07-.14.1-.34.1-.62v-.23Z"/>
    <path d="m24.87,124.76l.6.08c-.07.42-.24.74-.51.98-.27.24-.61.35-1,.35-.5,0-.9-.16-1.2-.49-.3-.32-.45-.79-.45-1.4,0-.39.06-.73.19-1.03.13-.29.33-.51.59-.66.27-.15.55-.22.87-.22.39,0,.72.1.97.3.25.2.41.48.48.85l-.6.09c-.06-.24-.16-.43-.3-.55s-.32-.18-.52-.18c-.31,0-.56.11-.75.33-.19.22-.29.57-.29,1.05s.09.84.28,1.06c.19.22.43.33.73.33.24,0,.44-.07.6-.22s.26-.38.31-.68Z"/>
    <path d="m26,121.79v-.71h.61v.71h-.61Zm0,4.3v-3.63h.61v3.63h-.61Z"/>
    <path d="m27.7,126.09v-3.15h-.54v-.48h.54v-.39c0-.24.02-.42.06-.54.06-.16.16-.29.31-.39.15-.1.36-.15.63-.15.17,0,.36.02.57.06l-.09.54c-.13-.02-.25-.03-.36-.03-.19,0-.32.04-.4.12-.08.08-.12.23-.12.45v.33h.71v.48h-.71v3.15h-.61Z"/>
    <path d="m29.5,121.79v-.71h.61v.71h-.61Zm0,4.3v-3.63h.61v3.63h-.61Z"/>
    <path d="m33.42,124.76l.6.08c-.07.42-.24.74-.51.98-.27.24-.61.35-1,.35-.5,0-.9-.16-1.2-.49-.3-.32-.45-.79-.45-1.4,0-.39.06-.73.19-1.03.13-.29.33-.51.59-.66.27-.15.55-.22.87-.22.39,0,.72.1.97.3.25.2.41.48.48.85l-.6.09c-.06-.24-.16-.43-.3-.55s-.32-.18-.52-.18c-.31,0-.56.11-.75.33-.19.22-.29.57-.29,1.05s.09.84.28,1.06c.19.22.43.33.73.33.24,0,.44-.07.6-.22s.26-.38.31-.68Z"/>
    <path d="m36.69,126.09v-5.01h.66v5.01h-.66Z"/>
    <path d="m38.19,125.01l.61-.1c.03.24.13.43.29.56.16.13.37.19.65.19s.49-.06.63-.17c.14-.11.21-.25.21-.4,0-.14-.06-.25-.18-.33-.08-.05-.29-.12-.63-.21-.45-.11-.76-.21-.94-.3-.17-.08-.31-.2-.4-.34-.09-.15-.13-.31-.13-.49,0-.16.04-.31.11-.45.07-.14.17-.25.3-.34.1-.07.23-.13.39-.18.17-.05.34-.07.53-.07.28,0,.53.04.75.12.22.08.37.19.48.33.1.14.17.33.21.56l-.6.08c-.03-.19-.11-.33-.24-.44-.13-.1-.32-.16-.56-.16-.28,0-.48.05-.6.14s-.18.2-.18.33c0,.08.02.15.08.22.05.07.13.12.24.16.06.02.24.08.54.16.44.12.74.21.91.29.17.07.31.18.4.32.1.14.15.32.15.53s-.06.4-.18.58c-.12.18-.29.32-.52.42-.23.1-.48.15-.77.15-.47,0-.83-.1-1.08-.29s-.4-.49-.47-.87Z"/>
    <path d="m41.93,126.09v-5.01h.61v5.01h-.61Z"/>
    <path d="m45.86,125.64c-.23.19-.45.33-.66.41-.21.08-.44.12-.68.12-.4,0-.71-.1-.92-.29-.21-.2-.32-.44-.32-.75,0-.18.04-.34.12-.49.08-.15.19-.26.32-.35s.28-.16.44-.2c.12-.03.3-.06.55-.09.5-.06.86-.13,1.1-.21,0-.08,0-.14,0-.16,0-.25-.06-.43-.17-.53-.16-.14-.39-.21-.7-.21-.29,0-.5.05-.64.15-.14.1-.24.28-.31.54l-.6-.08c.05-.26.14-.47.27-.62.13-.16.31-.28.54-.37.24-.08.51-.13.82-.13s.56.04.76.11c.19.07.34.16.43.28.09.11.15.25.19.42.02.1.03.29.03.57v.82c0,.57.01.93.04,1.09.03.15.08.3.16.44h-.64c-.06-.13-.1-.28-.12-.45Zm-.05-1.37c-.22.09-.56.17-1,.23-.25.04-.43.08-.54.12-.1.05-.19.11-.24.2-.06.09-.09.19-.09.29,0,.16.06.3.19.41.12.11.31.16.54.16s.45-.05.63-.16c.18-.1.32-.25.41-.43.07-.14.1-.34.1-.62v-.23Z"/>
    <path d="m47.39,126.09v-3.63h.55v.52c.27-.4.65-.6,1.15-.6.22,0,.42.04.6.12.18.08.32.18.41.31.09.13.15.28.19.45.02.11.03.31.03.6v2.23h-.61v-2.21c0-.25-.02-.44-.07-.56-.05-.12-.13-.22-.25-.3-.12-.07-.26-.11-.43-.11-.26,0-.49.08-.68.25-.19.17-.29.48-.29.95v1.98h-.61Z"/>
    <path d="m53.63,126.09v-.46c-.23.36-.57.54-1.02.54-.29,0-.56-.08-.8-.24-.24-.16-.43-.38-.56-.67-.13-.29-.2-.61-.2-.99s.06-.69.18-.99c.12-.29.3-.52.54-.68.24-.16.51-.24.81-.24.22,0,.41.05.58.14.17.09.31.21.42.36v-1.8h.61v5.01h-.57Zm-1.94-1.81c0,.46.1.81.29,1.04s.43.35.69.35.5-.11.69-.33c.19-.22.28-.56.28-1.01,0-.5-.1-.86-.29-1.09s-.43-.35-.71-.35-.5.11-.69.33c-.18.22-.27.58-.27,1.06Z"/>
    <path d="m57.65,124.92l.64.08c-.1.37-.29.66-.56.86s-.62.31-1.04.31c-.53,0-.95-.16-1.26-.49-.31-.33-.47-.79-.47-1.38s.16-1.08.47-1.42c.31-.34.72-.51,1.22-.51s.88.17,1.19.5c.31.33.46.8.46,1.39,0,.04,0,.09,0,.16h-2.71c.02.4.14.7.34.92s.46.32.76.32c.23,0,.42-.06.58-.18.16-.12.29-.31.38-.57Zm-2.02-.99h2.03c-.03-.31-.1-.53-.23-.69-.2-.24-.45-.36-.76-.36-.28,0-.52.09-.71.28-.19.19-.3.44-.32.76Z"/>
    <path d="m59.05,126.09v-3.63h.55v.55c.14-.26.27-.43.39-.51s.25-.12.39-.12c.21,0,.42.07.63.2l-.21.57c-.15-.09-.3-.13-.45-.13-.13,0-.25.04-.36.12-.11.08-.18.19-.23.34-.07.22-.1.46-.1.72v1.9h-.61Z"/>
  </g>
  <g>
    <path d="m34.75,106.23v-5.01h.66v2.06h2.6v-2.06h.66v5.01h-.66v-2.36h-2.6v2.36h-.66Z"/>
    <path d="m39.71,101.93v-.71h.61v.71h-.61Zm0,4.3v-3.63h.61v3.63h-.61Z"/>
    <path d="m41.02,105.15l.61-.1c.03.24.13.43.29.56.16.13.37.19.65.19s.49-.06.63-.17c.14-.11.21-.25.21-.4,0-.14-.06-.25-.18-.33-.08-.05-.29-.12-.63-.21-.45-.11-.76-.21-.94-.3-.17-.08-.31-.2-.4-.34-.09-.15-.13-.31-.13-.49,0-.16.04-.31.11-.45.07-.14.17-.25.3-.34.1-.07.23-.13.39-.18.17-.05.34-.07.53-.07.28,0,.53.04.75.12.22.08.37.19.48.33.1.14.17.33.21.56l-.6.08c-.03-.19-.11-.33-.24-.44-.13-.1-.32-.16-.56-.16-.28,0-.48.05-.6.14s-.18.2-.18.33c0,.08.02.15.08.22.05.07.13.12.24.16.06.02.24.08.54.16.44.12.74.21.91.29.17.07.31.18.4.32.1.14.15.32.15.53s-.06.4-.18.58c-.12.18-.29.32-.52.42-.23.1-.48.15-.77.15-.47,0-.83-.1-1.08-.29s-.4-.49-.47-.87Z"/>
    <path d="m44.76,107.62v-5.02h.56v.47c.13-.18.28-.32.45-.42.17-.09.37-.14.6-.14.31,0,.58.08.82.24.24.16.42.38.54.67.12.29.18.61.18.96,0,.37-.07.71-.2,1-.13.3-.33.52-.58.68-.25.16-.52.24-.8.24-.21,0-.39-.04-.55-.13-.16-.09-.3-.2-.4-.33v1.77h-.61Zm.56-3.19c0,.47.09.81.28,1.04s.42.33.69.33.51-.12.7-.35c.19-.23.29-.59.29-1.08s-.09-.81-.29-1.04c-.19-.23-.42-.35-.68-.35s-.49.12-.7.37c-.2.24-.3.6-.3,1.07Z"/>
    <path d="m51.02,105.79c-.23.19-.45.33-.66.41-.21.08-.44.12-.68.12-.4,0-.71-.1-.92-.29-.21-.2-.32-.44-.32-.75,0-.18.04-.34.12-.49.08-.15.19-.26.32-.35s.28-.16.44-.2c.12-.03.3-.06.55-.09.5-.06.86-.13,1.1-.21,0-.08,0-.14,0-.16,0-.25-.06-.43-.17-.53-.16-.14-.39-.21-.7-.21-.29,0-.5.05-.64.15-.14.1-.24.28-.31.54l-.6-.08c.05-.26.14-.47.27-.62.13-.16.31-.28.54-.37.24-.08.51-.13.82-.13s.56.04.76.11c.19.07.34.16.43.28.09.11.15.25.19.42.02.1.03.29.03.57v.82c0,.57.01.93.04,1.09.03.15.08.3.16.44h-.64c-.06-.13-.1-.28-.12-.45Zm-.05-1.37c-.22.09-.56.17-1,.23-.25.04-.43.08-.54.12-.1.05-.19.11-.24.2-.06.09-.09.19-.09.29,0,.16.06.3.19.41.12.11.31.16.54.16s.45-.05.63-.16c.18-.1.32-.25.41-.43.07-.14.1-.34.1-.62v-.23Z"/>
    <path d="m52.54,106.23v-3.63h.55v.52c.27-.4.65-.6,1.15-.6.22,0,.42.04.6.12.18.08.32.18.41.31.09.13.15.28.19.45.02.11.03.31.03.6v2.23h-.61v-2.21c0-.25-.02-.44-.07-.56-.05-.12-.13-.22-.25-.3-.12-.07-.26-.11-.43-.11-.26,0-.49.08-.68.25-.19.17-.29.48-.29.95v1.98h-.61Z"/>
    <path d="m56.44,101.93v-.71h.61v.71h-.61Zm0,4.3v-3.63h.61v3.63h-.61Z"/>
    <path d="m60.36,104.9l.6.08c-.07.42-.24.74-.51.98-.27.24-.61.35-1,.35-.5,0-.9-.16-1.2-.49-.3-.32-.45-.79-.45-1.4,0-.39.06-.73.19-1.03.13-.29.33-.51.59-.66.27-.15.55-.22.87-.22.39,0,.72.1.97.3.25.2.41.48.48.85l-.6.09c-.06-.24-.16-.43-.3-.55s-.32-.18-.52-.18c-.31,0-.56.11-.75.33-.19.22-.29.57-.29,1.05s.09.84.28,1.06c.19.22.43.33.73.33.24,0,.44-.07.6-.22s.26-.38.31-.68Z"/>
  </g>
  <g>
    <path d="m305.03,216.03l-.61.05c-.05-.24-.13-.42-.23-.53-.17-.18-.37-.26-.62-.26-.2,0-.37.05-.52.16-.19.14-.35.35-.46.62s-.17.66-.17,1.16c.15-.23.33-.39.54-.5s.44-.16.67-.16c.41,0,.76.15,1.05.45.29.3.43.69.43,1.17,0,.31-.07.61-.2.88-.14.27-.32.48-.56.62-.24.14-.51.22-.81.22-.51,0-.93-.19-1.25-.57-.32-.38-.49-1-.49-1.86,0-.97.18-1.67.54-2.11.31-.38.73-.57,1.26-.57.39,0,.72.11.97.33.25.22.4.53.45.92Zm-2.51,2.16c0,.21.04.41.13.61s.22.34.38.44c.16.1.33.15.51.15.26,0,.48-.1.67-.31.19-.21.28-.49.28-.85s-.09-.62-.28-.82c-.18-.2-.42-.3-.7-.3s-.51.1-.71.3c-.19.2-.29.46-.29.78Z"/>
    <path d="m308.92,216.03l-.61.05c-.05-.24-.13-.42-.23-.53-.17-.18-.37-.26-.62-.26-.2,0-.37.05-.52.16-.19.14-.35.35-.46.62s-.17.66-.17,1.16c.15-.23.33-.39.54-.5s.44-.16.67-.16c.41,0,.76.15,1.05.45.29.3.43.69.43,1.17,0,.31-.07.61-.2.88-.14.27-.32.48-.56.62-.24.14-.51.22-.81.22-.51,0-.93-.19-1.25-.57-.32-.38-.49-1-.49-1.86,0-.97.18-1.67.54-2.11.31-.38.73-.57,1.26-.57.39,0,.72.11.97.33.25.22.4.53.45.92Zm-2.51,2.16c0,.21.04.41.13.61s.22.34.38.44c.16.1.33.15.51.15.26,0,.48-.1.67-.31.19-.21.28-.49.28-.85s-.09-.62-.28-.82c-.18-.2-.42-.3-.7-.3s-.51.1-.71.3c-.19.2-.29.46-.29.78Z"/>
  </g>
  <g>
    <path d="m369.99,198.48c-.25-.09-.44-.23-.57-.4s-.18-.38-.18-.62c0-.36.13-.67.39-.92s.61-.37,1.05-.37.79.13,1.06.38c.27.25.4.56.4.93,0,.23-.06.43-.18.61-.12.17-.31.3-.56.4.31.1.54.26.7.49.16.22.24.49.24.8,0,.43-.15.79-.45,1.08-.3.29-.7.44-1.2.44s-.89-.15-1.2-.44c-.3-.29-.46-.66-.46-1.1,0-.33.08-.6.25-.82.17-.22.4-.37.71-.45Zm-.32,1.27c0,.18.04.35.12.51s.21.29.37.38c.16.09.34.14.53.14.29,0,.54-.09.73-.28s.29-.43.29-.72-.1-.54-.29-.73c-.2-.19-.44-.29-.74-.29s-.53.1-.72.29c-.19.19-.29.43-.29.72Zm.2-2.31c0,.24.08.43.23.58s.35.23.59.23.43-.07.58-.22c.15-.15.23-.33.23-.55s-.08-.42-.23-.57c-.16-.15-.35-.23-.58-.23s-.43.08-.58.23c-.15.15-.23.33-.23.54Z"/>
    <path d="m372.93,199.88l.65-.05c.05.31.16.55.33.71.17.16.38.24.63.24.3,0,.55-.11.75-.33s.31-.52.31-.89-.1-.63-.3-.83-.46-.3-.77-.3c-.2,0-.38.04-.54.14-.16.09-.28.21-.38.35l-.58-.08.49-2.57h2.49v.59h-2l-.27,1.35c.3-.21.62-.31.95-.31.44,0,.81.15,1.11.45s.45.69.45,1.17-.13.85-.4,1.18c-.32.41-.76.61-1.32.61-.46,0-.83-.13-1.12-.38s-.45-.59-.49-1.02Z"/>
  </g>
  <g>
    <path d="m365.45,162.59c-.25-.09-.44-.23-.57-.4s-.18-.38-.18-.62c0-.36.13-.67.39-.92s.61-.37,1.05-.37.79.13,1.06.38c.27.25.4.56.4.93,0,.23-.06.43-.18.61-.12.17-.31.3-.56.4.31.1.54.26.7.49.16.22.24.49.24.8,0,.43-.15.79-.45,1.08-.3.29-.7.44-1.2.44s-.89-.15-1.2-.44c-.3-.29-.46-.66-.46-1.1,0-.33.08-.6.25-.82.17-.22.4-.37.71-.45Zm-.32,1.27c0,.18.04.35.12.51s.21.29.37.38c.16.09.34.14.53.14.29,0,.54-.09.73-.28s.29-.43.29-.72-.1-.54-.29-.73c-.2-.19-.44-.29-.74-.29s-.53.1-.72.29c-.19.19-.29.43-.29.72Zm.2-2.31c0,.24.08.43.23.58s.35.23.59.23.43-.07.58-.22c.15-.15.23-.33.23-.55s-.08-.42-.23-.57c-.16-.15-.35-.23-.58-.23s-.43.08-.58.23c-.15.15-.23.33-.23.54Z"/>
    <path d="m370.37,165.31v-1.2h-2.17v-.56l2.29-3.25h.5v3.25h.68v.56h-.68v1.2h-.62Zm0-1.76v-2.26l-1.57,2.26h1.57Z"/>
  </g>
  <g>
    <path d="m323.67,141.6v-.59h3.24v.48c-.32.34-.63.79-.95,1.35-.31.56-.56,1.14-.73,1.74-.12.42-.2.88-.24,1.38h-.63c0-.39.08-.87.23-1.43.15-.56.36-1.1.64-1.62.28-.52.57-.96.88-1.31h-2.45Z"/>
    <path d="m327.53,144.63l.62-.08c.07.35.19.6.36.75.17.15.38.23.62.23.29,0,.53-.1.73-.3s.3-.45.3-.75-.09-.52-.28-.7c-.18-.18-.42-.28-.7-.28-.12,0-.26.02-.43.07l.07-.54s.07,0,.1,0c.26,0,.5-.07.71-.21.21-.14.31-.35.31-.63,0-.23-.08-.41-.23-.56s-.35-.22-.59-.22-.44.08-.6.23c-.16.15-.26.38-.31.68l-.62-.11c.08-.41.25-.73.51-.96.27-.23.6-.34.99-.34.27,0,.52.06.75.18.23.12.41.28.53.48.12.2.18.42.18.65,0,.22-.06.41-.17.59s-.29.32-.52.42c.3.07.53.21.69.43.16.21.25.48.25.81,0,.44-.16.81-.48,1.11-.32.3-.72.46-1.21.46-.44,0-.8-.13-1.09-.39s-.46-.6-.5-1.02Z"/>
  </g>
  <g>
    <path d="m360,123.37c-.25-.09-.44-.23-.57-.4s-.18-.38-.18-.62c0-.36.13-.67.39-.92s.61-.37,1.05-.37.79.13,1.06.38c.27.25.4.56.4.93,0,.23-.06.43-.18.61-.12.17-.31.3-.56.4.31.1.54.26.7.49.16.22.24.49.24.8,0,.43-.15.79-.45,1.08-.3.29-.7.44-1.2.44s-.89-.15-1.2-.44c-.3-.29-.46-.66-.46-1.1,0-.33.08-.6.25-.82.17-.22.4-.37.71-.45Zm-.32,1.27c0,.18.04.35.12.51s.21.29.37.38c.16.09.34.14.53.14.29,0,.54-.09.73-.28s.29-.43.29-.72-.1-.54-.29-.73c-.2-.19-.44-.29-.74-.29s-.53.1-.72.29c-.19.19-.29.43-.29.72Zm.2-2.31c0,.24.08.43.23.58s.35.23.59.23.43-.07.58-.22c.15-.15.23-.33.23-.55s-.08-.42-.23-.57c-.16-.15-.35-.23-.58-.23s-.43.08-.58.23c-.15.15-.23.33-.23.54Z"/>
    <path d="m366.18,125.5v.59h-3.31c0-.15.02-.29.07-.43.08-.23.22-.45.41-.67s.45-.47.8-.76c.54-.45.91-.8,1.1-1.06.19-.26.29-.51.29-.74s-.09-.45-.26-.62c-.17-.17-.4-.25-.68-.25-.3,0-.53.09-.71.27-.18.18-.27.42-.27.74l-.63-.06c.04-.47.21-.83.49-1.08.28-.25.66-.37,1.14-.37s.86.13,1.14.4.42.6.42.99c0,.2-.04.4-.12.59s-.22.4-.41.61-.51.51-.95.88c-.37.31-.61.52-.71.63-.1.11-.19.22-.26.33h2.46Z"/>
  </g>
  <g>
    <path d="m366.36,103.52c-.25-.09-.44-.23-.57-.4s-.18-.38-.18-.62c0-.36.13-.67.39-.92s.61-.37,1.05-.37.79.13,1.06.38c.27.25.4.56.4.93,0,.23-.06.43-.18.61-.12.17-.31.3-.56.4.31.1.54.26.7.49.16.22.24.49.24.8,0,.43-.15.79-.45,1.08-.3.29-.7.44-1.2.44s-.89-.15-1.2-.44c-.3-.29-.46-.66-.46-1.1,0-.33.08-.6.25-.82.17-.22.4-.37.71-.45Zm-.32,1.27c0,.18.04.35.12.51s.21.29.37.38c.16.09.34.14.53.14.29,0,.54-.09.73-.28s.29-.43.29-.72-.1-.54-.29-.73c-.2-.19-.44-.29-.74-.29s-.53.1-.72.29c-.19.19-.29.43-.29.72Zm.2-2.31c0,.24.08.43.23.58s.35.23.59.23.43-.07.58-.22c.15-.15.23-.33.23-.55s-.08-.42-.23-.57c-.16-.15-.35-.23-.58-.23s-.43.08-.58.23c-.15.15-.23.33-.23.54Z"/>
    <path d="m371.27,106.23v-1.2h-2.17v-.56l2.29-3.25h.5v3.25h.68v.56h-.68v1.2h-.62Zm0-1.76v-2.26l-1.57,2.26h1.57Z"/>
  </g>
  <g>
    <path d="m439.88,86.37h-.61v-3.92c-.15.14-.34.28-.58.42s-.46.25-.65.32v-.59c.34-.16.64-.36.9-.59.26-.23.44-.45.55-.67h.4v5.03Z"/>
    <path d="m441.46,83.9c0-.59.06-1.07.18-1.43.12-.36.3-.64.54-.84s.54-.29.91-.29c.27,0,.5.05.71.16.2.11.37.26.5.47.13.2.24.45.31.75.08.29.11.69.11,1.18,0,.59-.06,1.06-.18,1.42-.12.36-.3.64-.54.84-.24.2-.54.3-.91.3-.48,0-.86-.17-1.14-.52-.33-.42-.5-1.1-.5-2.04Zm.63,0c0,.82.1,1.37.29,1.64.19.27.43.41.71.41s.52-.14.71-.41.29-.82.29-1.64-.1-1.37-.29-1.64-.43-.41-.72-.41-.51.12-.68.36c-.21.31-.32.87-.32,1.69Z"/>
    <path d="m445.35,85.06l.65-.05c.05.31.16.55.33.71.17.16.38.24.63.24.3,0,.55-.11.75-.33s.31-.52.31-.89-.1-.63-.3-.83-.46-.3-.77-.3c-.2,0-.38.04-.54.14-.16.09-.28.21-.38.35l-.58-.08.49-2.57h2.49v.59h-2l-.27,1.35c.3-.21.62-.31.95-.31.44,0,.81.15,1.11.45s.45.69.45,1.17-.13.85-.4,1.18c-.32.41-.76.61-1.32.61-.46,0-.83-.13-1.12-.38s-.45-.59-.49-1.02Z"/>
  </g>
  <g>
    <path d="m292.31,62.73l-.61.05c-.05-.24-.13-.42-.23-.53-.17-.18-.37-.26-.62-.26-.2,0-.37.05-.52.16-.19.14-.35.35-.46.62s-.17.66-.17,1.16c.15-.23.33-.39.54-.5s.44-.16.67-.16c.41,0,.76.15,1.05.45.29.3.43.69.43,1.17,0,.31-.07.61-.2.88-.14.27-.32.48-.56.62-.24.14-.51.22-.81.22-.51,0-.93-.19-1.25-.57-.32-.38-.49-1-.49-1.86,0-.97.18-1.67.54-2.11.31-.38.73-.57,1.26-.57.39,0,.72.11.97.33.25.22.4.53.45.92Zm-2.51,2.16c0,.21.04.41.13.61s.22.34.38.44c.16.1.33.15.51.15.26,0,.48-.1.67-.31.19-.21.28-.49.28-.85s-.09-.62-.28-.82c-.18-.2-.42-.3-.7-.3s-.51.1-.71.3c-.19.2-.29.46-.29.78Z"/>
    <path d="m293.01,65.19l.62-.08c.07.35.19.6.36.75.17.15.38.23.62.23.29,0,.53-.1.73-.3s.3-.45.3-.75-.09-.52-.28-.7c-.18-.18-.42-.28-.7-.28-.12,0-.26.02-.43.07l.07-.54s.07,0,.1,0c.26,0,.5-.07.71-.21.21-.14.31-.35.31-.63,0-.23-.08-.41-.23-.56s-.35-.22-.59-.22-.44.08-.6.23c-.16.15-.26.38-.31.68l-.62-.11c.08-.41.25-.73.51-.96.27-.23.6-.34.99-.34.27,0,.52.06.75.18.23.12.41.28.53.48.12.2.18.42.18.65,0,.22-.06.41-.17.59s-.29.32-.52.42c.3.07.53.21.69.43.16.21.25.48.25.81,0,.44-.16.81-.48,1.11-.32.3-.72.46-1.21.46-.44,0-.8-.13-1.09-.39s-.46-.6-.5-1.02Z"/>
  </g>
  <g>
    <path d="m377.26,42.94c-.25-.09-.44-.23-.57-.4s-.18-.38-.18-.62c0-.36.13-.67.39-.92s.61-.37,1.05-.37.79.13,1.06.38c.27.25.4.56.4.93,0,.23-.06.43-.18.61-.12.17-.31.3-.56.4.31.1.54.26.7.49.16.22.24.49.24.8,0,.43-.15.79-.45,1.08-.3.29-.7.44-1.2.44s-.89-.15-1.2-.44c-.3-.29-.46-.66-.46-1.1,0-.33.08-.6.25-.82.17-.22.4-.37.71-.45Zm-.32,1.27c0,.18.04.35.12.51s.21.29.37.38c.16.09.34.14.53.14.29,0,.54-.09.73-.28s.29-.43.29-.72-.1-.54-.29-.73c-.2-.19-.44-.29-.74-.29s-.53.1-.72.29c-.19.19-.29.43-.29.72Zm.2-2.31c0,.24.08.43.23.58s.35.23.59.23.43-.07.58-.22c.15-.15.23-.33.23-.55s-.08-.42-.23-.57c-.16-.15-.35-.23-.58-.23s-.43.08-.58.23c-.15.15-.23.33-.23.54Z"/>
    <path d="m380.24,41.3v-.59h3.24v.48c-.32.34-.63.79-.95,1.35-.31.56-.56,1.14-.73,1.74-.12.42-.2.88-.24,1.38h-.63c0-.39.08-.87.23-1.43.15-.56.36-1.1.64-1.62.28-.52.57-.96.88-1.31h-2.45Z"/>
  </g>
  <g>
    <path d="m343.62,11.39v-.89h3.28v.7c-.27.27-.55.65-.83,1.15s-.49,1.03-.64,1.59c-.15.56-.22,1.06-.22,1.51h-.93c.02-.69.16-1.4.43-2.12.27-.72.63-1.36,1.08-1.93h-2.18Z"/>
    <path d="m348.34,12.74c-.25-.1-.43-.25-.54-.43-.11-.18-.17-.38-.17-.6,0-.37.13-.68.39-.93s.63-.37,1.11-.37.85.12,1.11.37c.26.24.39.55.39.93,0,.23-.06.44-.18.62-.12.18-.29.32-.51.42.28.11.49.27.63.49s.22.46.22.74c0,.46-.15.84-.44,1.13s-.69.43-1.18.43c-.46,0-.83-.12-1.14-.36-.36-.28-.54-.67-.54-1.16,0-.27.07-.52.2-.75.13-.23.35-.4.64-.52Zm.11,1.18c0,.26.07.47.2.62.13.15.3.22.51.22s.36-.07.49-.21c.13-.14.19-.35.19-.62,0-.23-.07-.42-.2-.57-.13-.14-.3-.21-.5-.21-.23,0-.41.08-.52.24s-.17.34-.17.53Zm.09-2.15c0,.19.05.34.16.45.11.11.25.16.43.16s.33-.05.44-.16c.11-.11.16-.26.16-.45,0-.18-.05-.32-.16-.43-.11-.11-.25-.16-.43-.16s-.33.05-.44.16-.16.25-.16.43Z"/>
  </g>
</svg>